<svg width="270" height="270" viewBox="0 0 270 270" fill="none" xmlns="http://www.w3.org/2000/svg">
<g clip-path="url(#clip0_662_50)">
<circle cx="134.371" cy="147.448" r="107.199" stroke="#F7F7FC"/>
<path d="M135.328 7.25C136.675 4.91668 140.043 4.91672 141.391 7.25L178.877 72.1777C180.224 74.5111 178.54 77.4277 175.846 77.4277H100.873C98.1789 77.4275 96.4947 74.511 97.8418 72.1777L135.328 7.25Z" fill="#6456FB" stroke="#F7F7FC"/>
<path d="M70.1687 151.565C72.1016 151.565 73.6688 153.132 73.669 155.065V217.176C73.669 219.109 72.1017 220.676 70.1687 220.676H8.0579C6.1249 220.676 4.55758 219.109 4.55758 217.176V155.065C4.55772 153.132 6.12499 151.565 8.0579 151.565H70.1687Z" fill="#6456FB" stroke="#F7F7FC"/>
<path d="M228.391 148.519C248.878 148.519 265.5 165.381 265.5 186.197C265.5 207.014 248.878 223.877 228.391 223.877C207.903 223.877 191.281 207.014 191.281 186.197C191.281 165.381 207.903 148.519 228.391 148.519Z" fill="#6456FB" stroke="#F7F7FC"/>
<path d="M141.087 242.5L129.234 254.354L141.087 266.207" stroke="#F7F7FC" stroke-linecap="round"/>
<path d="M48.7159 103.109L46.6328 86.4766L30 88.5596" stroke="#F7F7FC" stroke-linecap="round"/>
<path d="M235.216 88.5586L233.133 105.191L216.5 103.108" stroke="#F7F7FC" stroke-linecap="round"/>
</g>
<defs>
<clipPath id="clip0_662_50">
<rect width="270" height="270" fill="white"/>
</clipPath>
</defs>
</svg>
