<svg width="25" height="25" viewBox="0 0 25 25" fill="none" xmlns="http://www.w3.org/2000/svg">
<path fill-rule="evenodd" clip-rule="evenodd" d="M4.54545 0C3.33992 0 2.18377 0.478895 1.33133 1.33133C0.478895 2.18377 0 3.33992 0 4.54545V20.4545C0 21.6601 0.478895 22.8162 1.33133 23.6687C2.18377 24.5211 3.33992 25 4.54545 25H20.4545C21.6601 25 22.8162 24.5211 23.6687 23.6687C24.5211 22.8162 25 21.6601 25 20.4545V4.54545C25 3.33992 24.5211 2.18377 23.6687 1.33133C22.8162 0.478895 21.6601 0 20.4545 0H4.54545ZM2.85455 17.5818L6.48409 7.20909V6.45909H9.38182L13.3977 17.5818H10.9091L9.96364 14.983H6.03295L5.15227 17.5818H2.85455ZM6.65568 12.7716H9.31818L7.98864 8.43409L6.65568 12.7716ZM20.8284 15.4545V17.3864C20.4341 17.5455 19.342 17.8602 18.1227 17.8602C16.5977 17.8602 13.8273 17.1295 13.8273 13.3284C13.8273 9.97841 16.2977 9.0125 18.1227 9.0125C19.7545 9.0125 21.5795 10.2148 21.5795 12.5125V14.0159H16.2977C16.4477 14.6239 17.083 15.8409 18.4227 15.8409C19.7625 15.8409 20.5852 15.583 20.8284 15.4545ZM16.3182 12.4057H19.3898C19.3534 11.8761 19.0034 10.8159 17.8864 10.8159C16.7693 10.8159 16.375 11.875 16.3182 12.4057Z" fill="#B9CCF5"/>
</svg>
