<?xml version="1.0" encoding="UTF-8"?><svg id="a" xmlns="http://www.w3.org/2000/svg" viewBox="0 0 215.28 115.68"><defs><style>.b{fill:#f7f7fc;}</style></defs><path class="b" d="M28.38,41.91l-14.45.03-2.82,10.71-10.39.05c-.16-1.3.13-2.31.57-3.56L16.45.75l9.4-.04,16.41,51.95-10.97.02-2.91-10.78ZM26.21,33.44l-4.43-16.89c-.07-.74-.3-1.36-.83-1.69l-4.77,18.55,10.03.03Z"/><path class="b" d="M130.92,67.8l8.87-.03v47.19s-9.11-.06-9.11-.06l-14.96-29.55-.18,29.6h-8.84s0-47.18,0-47.18h9.11c.71,1.76,1.55,3.34,2.4,5l2.78,5.42,8.96,17.82c.26.51.41,1.01.96,1.21v-29.43Z"/><path class="b" d="M96.65,113.56c0,.46.4,1.32-.04,1.32l-10.01.04v-21.99c-.19-.35-.58-.5-1-.49l-14.83.03-.02,22.5-10.3-.05v-51.89s10.31-.05,10.31-.05v21.09s15.82,0,15.82,0l.02-21.05,9.97.03c.3,0,.23.95.08,1.18v49.34Z"/><path class="b" d="M170.79,105.14l-13.15.03-2.6,9.75-9.88.02,14.73-47.16h8.59s14.86,47.1,14.86,47.1l-9.92.09-2.63-9.83ZM168.74,97.33l-4.23-16.15c-.17-.32-.33-.55-.52-.38-.21.19-.13.37-.2.63l-4.2,16.04,9.15-.15Z"/><path class="b" d="M213.87,75.43c-3.45-.25-7.06-.15-10.55,0-.12.02-.48-.07-.48.28v38.49c0,.34-.06.52-.23.65-.12.09-.32.11-.49.11-2.5-.21-5.16-.2-7.67,0-.17,0-.37-.02-.49-.11-.17-.13-.23-.3-.23-.64v-38.24c0-.34-.33-.51-.48-.53l-11.03-.24c-.42-.07-.05-.45-.04-.76.07-2.26.08-4.42-.06-6.67h32.46s.02,6.95.02,6.95c0,.27-.08.49-.24.61-.12.09-.32.11-.49.11Z"/><path class="b" d="M136.39,75.43c-3.69-.16-7.43.32-11.03-.24,3.03.06,8.3-.19,11.03.24Z"/><path class="b" d="M157.01,75.43h-10.55c2.51-.45,7.54-.16,10.09-.25.29-.01.59.18.46.25Z"/><path class="b" d="M145.26,114.95h-7.67c-.02-.19.22-.25.47-.25h6.73c.25,0,.49.06.47.25Z"/><path class="b" d="M79.63,22.86c.03-.89.31-1.64-.18-2.24l-9.13,32.01-7.07.05-9-29.62c-.57.67-.17,1.5-.16,2.19l.18,6.98.16,20.46h-8.91s0-47.18,0-47.18h11.55s9.71,32.39,9.71,32.39l9.73-32.39h11.69s0,47.18,0,47.18h-9.15s.18-17.59.18-17.59c.03-2.61.16-5.08.24-7.63l.14-4.6Z"/><path class="b" d="M202.07,42.91l-13.15-.06-2.66,9.82h-9.87s14.76-47.17,14.76-47.17h8.56s14.89,47.16,14.89,47.16h-9.94s-2.59-9.75-2.59-9.75ZM200.06,35.08l-4.61-16.91-4.61,16.97,9.21-.06Z"/><polygon class="b" points="170.44 52.65 161.32 52.69 161.32 5.5 170.44 5.5 170.44 52.65"/><path class="b" d="M138.31,5.98c-.15,12.83-.26,25.73,0,38.56,0,.12-.04.48.25.48h16.53s0,7.67,0,7.67h-26.13s0-47.18,0-47.18h8.85c.28,0,.5.32.5.47Z"/><path class="b" d="M138.31,44.54c-.53-11.52-.3-26.99,0-38.56v38.56Z"/><path class="b" d="M122.97,5.74h-26.61c-.03-.09.08-.24.28-.24h26.06c.2,0,.3.15.28.24Z"/><path class="b" d="M122.97,52.44v-7.19c.4,2.31.4,4.87,0,7.19Z"/><path class="b" d="M122.97,5.74v7.43s-16.77,0-16.77,0c-.33,0-.56.17-.73.24-.21,3.52-.19,7.21,0,10.78.03.15.02.33.17.41.1.06.21.06.31.07,4.53.19,9.22.21,13.66,0,.39,0,.72.38.72.72-.21,1.94-.2,4.04,0,5.99,0,.17-.02.37-.11.49-.12.17-.33.24-.62.24l-13.42-.02c-.38,0-.69.21-.72.49-.2,3.99-.2,7.99,0,11.98.12,1.15,15.94-.06,17.5.72.2,2.39.2,4.79,0,7.19l-26.86.3V6.02c0-.29.15-.28.24-.28,8.73-.21,17.87-.21,26.61,0Z"/><path class="b" d="M119.61,24.66s-.1.3-.26.29c-4.55-.27-9.04.3-13.4-.29h13.66Z"/><path class="b" d="M105.47,44.54c-.4-3.92-.4-8.05,0-11.98v11.98Z"/><path class="b" d="M105.47,24.18c-.6-3.32,0-6.79-.29-10.31-.02-.27.19-.42.29-.47v10.78Z"/><path class="b" d="M120.33,31.37c-.19.02-.25-.22-.25-.47v-5.05c0-.25.06-.49.25-.47v5.99Z"/></svg>