<?xml version="1.0" encoding="UTF-8"?>
<svg id="_x2018_ëîé_x5F_2" xmlns="http://www.w3.org/2000/svg" version="1.1" viewBox="0 0 96 87.88">
  <!-- Generator: Adobe Illustrator 30.3.0, SVG Export Plug-In . SVG Version: 2.1.1 Build 22)  -->
  <defs>
    <style>
      .st0 {
        fill: #b8cbf3;
      }
    </style>
  </defs>
  <path class="st0" d="M94.2,42.11l-23.6-10.51,9.2-21.19c.17-1.35-.71-1.69-1.75-1.55l-18.24,11.82L48.84.29c-.65-.36-1.31-.41-1.99.05l-10.29,20.27-17.45-11.3c-.83-.54-1.45-.49-2.02,0-.48.42-.59,1.13-.34,1.72l8.72,20.62L1.56,42.63l-.67.67c-.45.45-.46,1.23,0,1.67l.76.6,22.51,10.07-8.12,20.7c-.68,1.43.78,2.72,2.21,2.21l17.72-10.89c3.52,6.09,7.18,12.96,10.33,19.35l.17.22c.45.6,1.36.57,1.78-.05l.11-.16c4.24-6.59,7.08-13.57,11.52-20.88l17.26,11.19c.48.31,1.1.6,1.46.57.43-.03,1.31-1.1,1.12-1.56l-9.16-21.08,24.21-10.63c.43-.19.77-.99.74-1.31-.03-.4-.74-.97-1.3-1.22ZM30.55,36.77l3.03-2.84-3.59-8.65,9.33,3.61,6.01-7.13.19,18.96-18.83-.02c1.55-1.64,2.57-2.67,3.85-3.94ZM45.32,64.95l-6.1-7.04-9.21,3.45c.95-3.2,2.43-5.76,3.71-8.69l-6.48-6.65,18.29-.05-.21,18.98ZM66.61,61.47l-8.97-3.55-6.36,6.99-.08-18.95,18.93.08-7.13,6.42,3.6,9.02ZM51.21,40.76l.08-18.98c1.87,2.31,4.3,5.46,5.83,7.21,0,0,5.72-2.32,9.4-3.62l-3.58,8.62,7.3,6.54-19.03.23Z"/>
</svg>