<svg width="31" height="25" viewBox="0 0 31 25" fill="none" xmlns="http://www.w3.org/2000/svg">
<mask id="path-1-inside-1_726_26" fill="white">
<path d="M27.2158 7.76832L17.5042 0.362592C16.8681 -0.122374 15.7992 -0.12021 15.1008 0.365177C14.3935 0.855613 14.312 1.66864 14.9405 2.18132L18.9794 5.44484H6.64769C5.62971 5.44527 4.65115 6.12207 4.45807 6.96064C4.25845 7.81443 4.94941 8.51455 6.00783 8.5178H12.249L1.06757 17.0392C0.0167748 17.8375 -0.322348 19.1665 0.33949 20.0068C1.01065 20.8622 2.43938 20.8638 3.50107 20.0116L9.58028 15.072C9.58028 15.072 9.49109 15.7384 9.49817 16.1386C9.68096 19.5175 12.2753 22.6497 15.4877 24.0369C21.0228 26.4712 28.4961 24.2427 30.5975 17.8987C31.5969 14.5709 30.8308 10.6137 27.2158 7.76838M16.9206 19.5643C12.549 17.2923 12.5489 11.5815 16.9206 9.30948C21.2923 7.03747 26.7866 9.89292 26.7866 14.4369C26.7866 18.9808 21.2923 21.8363 16.9206 19.5643ZM18.252 17.5197C15.4635 16.0717 15.4635 12.4318 18.252 10.9837C21.0405 9.5357 24.5449 11.3556 24.5449 14.2517C24.5449 17.1479 21.0404 18.9678 18.252 17.5197Z"/>
</mask>
<path d="M27.2158 7.76832L17.5042 0.362592C16.8681 -0.122374 15.7992 -0.12021 15.1008 0.365177C14.3935 0.855613 14.312 1.66864 14.9405 2.18132L18.9794 5.44484H6.64769C5.62971 5.44527 4.65115 6.12207 4.45807 6.96064C4.25845 7.81443 4.94941 8.51455 6.00783 8.5178H12.249L1.06757 17.0392C0.0167748 17.8375 -0.322348 19.1665 0.33949 20.0068C1.01065 20.8622 2.43938 20.8638 3.50107 20.0116L9.58028 15.072C9.58028 15.072 9.49109 15.7384 9.49817 16.1386C9.68096 19.5175 12.2753 22.6497 15.4877 24.0369C21.0228 26.4712 28.4961 24.2427 30.5975 17.8987C31.5969 14.5709 30.8308 10.6137 27.2158 7.76838M16.9206 19.5643C12.549 17.2923 12.5489 11.5815 16.9206 9.30948C21.2923 7.03747 26.7866 9.89292 26.7866 14.4369C26.7866 18.9808 21.2923 21.8363 16.9206 19.5643ZM18.252 17.5197C15.4635 16.0717 15.4635 12.4318 18.252 10.9837C21.0405 9.5357 24.5449 11.3556 24.5449 14.2517C24.5449 17.1479 21.0404 18.9678 18.252 17.5197Z" fill="#B9CCF5"/>
<path d="M17.5042 0.362592L17.6594 0.159026L17.6594 0.15901L17.5042 0.362592ZM15.1008 0.365177L15.2466 0.575546L15.2468 0.5754L15.1008 0.365177ZM14.9405 2.18132L14.7787 2.3797L14.7796 2.38044L14.9405 2.18132ZM18.9794 5.44484V5.70084H19.7035L19.1403 5.24572L18.9794 5.44484ZM6.64769 5.44484V5.18884H6.64758L6.64769 5.44484ZM4.45807 6.96064L4.70735 7.01892L4.70754 7.01808L4.45807 6.96064ZM6.00783 8.5178L6.00704 8.7738H6.00783V8.5178ZM12.249 8.5178L12.4042 8.72141L13.0073 8.2618H12.249V8.5178ZM1.06757 17.0392L1.22244 17.243L1.22274 17.2428L1.06757 17.0392ZM0.33949 20.0068L0.54089 19.8488L0.540597 19.8484L0.33949 20.0068ZM3.50107 20.0116L3.66132 20.2113L3.6625 20.2103L3.50107 20.0116ZM9.58028 15.072L9.83401 15.106L9.91961 14.4664L9.41884 14.8733L9.58028 15.072ZM9.49817 16.1386L9.24204 16.1432L9.24255 16.1525L9.49817 16.1386ZM15.4877 24.0369L15.5907 23.8025L15.5891 23.8019L15.4877 24.0369ZM30.5975 17.8987L30.8407 17.9793L30.8427 17.9724L30.5975 17.8987ZM16.9206 19.5643L17.0387 19.3371V19.3371L16.9206 19.5643ZM18.252 17.5197L18.37 17.2925L18.37 17.2925L18.252 17.5197ZM27.2158 7.76832L27.3711 7.56475L17.6594 0.159026L17.5042 0.362592L17.3489 0.566158L27.0606 7.97188L27.2158 7.76832ZM17.5042 0.362592L17.6594 0.15901C17.2878 -0.124297 16.8035 -0.256651 16.3255 -0.255998C15.8468 -0.255343 15.3524 -0.121437 14.9547 0.154954L15.1008 0.365177L15.2468 0.5754C15.5476 0.366405 15.9369 0.256534 16.3262 0.256002C16.7163 0.255468 17.0845 0.364515 17.349 0.566174L17.5042 0.362592ZM15.1008 0.365177L14.9549 0.154808C14.5512 0.434746 14.3032 0.823901 14.2648 1.24146C14.226 1.66351 14.4054 2.07519 14.7787 2.3797L14.9405 2.18132L15.1023 1.98294C14.8471 1.77476 14.753 1.5236 14.7746 1.28835C14.7967 1.04862 14.9431 0.786045 15.2466 0.575546L15.1008 0.365177ZM14.9405 2.18132L14.7796 2.38044L18.8185 5.64397L18.9794 5.44484L19.1403 5.24572L15.1014 1.9822L14.9405 2.18132ZM18.9794 5.44484V5.18884H6.64769V5.44484V5.70084H18.9794V5.44484ZM6.64769 5.44484L6.64758 5.18884C6.08353 5.18908 5.53408 5.37603 5.09786 5.67793C4.66312 5.9788 4.32281 6.40718 4.2086 6.9032L4.45807 6.96064L4.70754 7.01808C4.78642 6.67553 5.03192 6.34622 5.38923 6.09894C5.74505 5.85269 6.19387 5.70103 6.64779 5.70084L6.64769 5.44484ZM4.45807 6.96064L4.20879 6.90236C4.08862 7.41632 4.23814 7.89464 4.5795 8.23852C4.91624 8.57775 5.42345 8.77201 6.00704 8.7738L6.00783 8.5178L6.00861 8.2618C5.53378 8.26034 5.16631 8.10291 4.94287 7.87782C4.72404 7.65738 4.62789 7.35875 4.70735 7.01892L4.45807 6.96064ZM6.00783 8.5178V8.7738H12.249V8.5178V8.2618H6.00783V8.5178ZM12.249 8.5178L12.0938 8.31419L0.912393 16.8356L1.06757 17.0392L1.22274 17.2428L12.4042 8.72141L12.249 8.5178ZM1.06757 17.0392L0.912695 16.8353C-0.20441 17.6841 -0.64504 19.1706 0.138382 20.1652L0.33949 20.0068L0.540597 19.8484C0.000343507 19.1625 0.237959 17.991 1.22244 17.243L1.06757 17.0392ZM0.33949 20.0068L0.13809 20.1648C0.929147 21.173 2.53363 21.1165 3.66132 20.2113L3.50107 20.0116L3.34082 19.812C2.34512 20.6112 1.09216 20.5513 0.54089 19.8488L0.33949 20.0068ZM3.50107 20.0116L3.6625 20.2103L9.74171 15.2707L9.58028 15.072L9.41884 14.8733L3.33963 19.8129L3.50107 20.0116ZM9.58028 15.072C9.32654 15.0381 9.32654 15.0381 9.32653 15.0381C9.32653 15.0381 9.32653 15.0381 9.32653 15.0381C9.32652 15.0382 9.32652 15.0382 9.32651 15.0383C9.3265 15.0384 9.32648 15.0385 9.32645 15.0387C9.3264 15.0391 9.32633 15.0396 9.32623 15.0403C9.32605 15.0417 9.32578 15.0438 9.32544 15.0464C9.32475 15.0516 9.32376 15.0592 9.32252 15.069C9.32002 15.0886 9.31648 15.1168 9.31228 15.1519C9.30387 15.2219 9.29273 15.3196 9.28181 15.43C9.26028 15.6479 9.23839 15.9271 9.24221 16.1432L9.49817 16.1386L9.75413 16.1341C9.75087 15.9499 9.77003 15.6958 9.79133 15.4804C9.80182 15.3743 9.81253 15.2803 9.82063 15.2129C9.82467 15.1792 9.82804 15.1523 9.8304 15.1338C9.83157 15.1246 9.83249 15.1175 9.83311 15.1128C9.83342 15.1105 9.83365 15.1087 9.83381 15.1075C9.83388 15.107 9.83394 15.1065 9.83397 15.1063C9.83399 15.1062 9.834 15.1061 9.83401 15.106C9.83401 15.106 9.83401 15.106 9.83401 15.106C9.83401 15.106 9.83401 15.106 9.83401 15.106C9.83401 15.106 9.83401 15.106 9.58028 15.072ZM9.49817 16.1386L9.24255 16.1525C9.43168 19.6485 12.1049 22.8549 15.3862 24.2719L15.4877 24.0369L15.5891 23.8019C12.4458 22.4444 9.93025 19.3864 9.7538 16.1248L9.49817 16.1386ZM15.4877 24.0369L15.3846 24.2712C21.0276 26.7529 28.6818 24.4962 30.8406 17.9792L30.5975 17.8987L30.3545 17.8182C28.3104 23.9893 21.0181 26.1894 15.5907 23.8025L15.4877 24.0369ZM30.5975 17.8987L30.8427 17.9724C31.87 14.5518 31.0781 10.4826 27.3741 7.56721L27.2158 7.76838L27.0574 7.96954C30.5835 10.7449 31.3239 14.5901 30.3524 17.8251L30.5975 17.8987ZM16.9206 19.5643L17.0387 19.3371C14.9359 18.2443 13.8979 16.3352 13.8978 14.4369C13.8978 12.5386 14.9359 10.6295 17.0387 9.53664L16.9206 9.30948L16.8026 9.08233C14.5336 10.2615 13.3858 12.3438 13.3858 14.4369C13.3859 16.53 14.5336 18.6123 16.8026 19.7914L16.9206 19.5643ZM16.9206 9.30948L17.0387 9.53664C19.1448 8.44205 21.523 8.58189 23.375 9.54435C25.2265 10.5066 26.5306 12.2775 26.5306 14.4369H26.7866H27.0426C27.0426 12.0523 25.5996 10.1235 23.6111 9.09004C21.6229 8.05678 19.0681 7.9049 16.8026 9.08233L16.9206 9.30948ZM26.7866 14.4369H26.5306C26.5306 16.5963 25.2265 18.3672 23.375 19.3294C21.523 20.2919 19.1448 20.4317 17.0387 19.3371L16.9206 19.5643L16.8026 19.7914C19.0681 20.9689 21.6229 20.817 23.6111 19.7837C25.5996 18.7503 27.0426 16.8214 27.0426 14.4369H26.7866ZM18.252 17.5197L18.37 17.2925C17.0588 16.6116 16.4166 15.4262 16.4166 14.2517C16.4166 13.0772 17.0588 11.8918 18.37 11.2109L18.252 10.9837L18.134 10.7566C16.6567 11.5237 15.9046 12.8822 15.9046 14.2517C15.9046 15.6212 16.6567 16.9797 18.134 17.7469L18.252 17.5197ZM18.252 10.9837L18.37 11.2109C19.6845 10.5283 21.1696 10.6152 22.3262 11.2159C23.4824 11.8163 24.2889 12.9163 24.2889 14.2517H24.5449H24.8009C24.8009 12.691 23.8552 11.433 22.5621 10.7615C21.2694 10.0901 19.6079 9.99116 18.134 10.7566L18.252 10.9837ZM24.5449 14.2517H24.2889C24.2889 15.5871 23.4824 16.6872 22.3261 17.2876C21.1695 17.8882 19.6845 17.9752 18.37 17.2925L18.252 17.5197L18.134 17.7469C19.6079 18.5123 21.2693 18.4133 22.5621 17.742C23.8552 17.0705 24.8009 15.8125 24.8009 14.2517H24.5449Z" fill="black" mask="url(#path-1-inside-1_726_26)"/>
</svg>
