<?xml version="1.0" encoding="UTF-8"?><svg id="a" xmlns="http://www.w3.org/2000/svg" viewBox="0 0 601.39 186.13"><defs><style>.b{fill:#f7f7fc;}</style></defs><path class="b" d="M0,185.19V3.38l105.25,101.29L.96,184.64c-.42.32-.61.49-.96.55Z"/><path class="b" d="M112.95,112.83L5.61,186.13h2.15c6.75-2.59,13.81-4.26,21.08-5.75,11.18-2.29,22.39-3.77,33.79-4.73,32.95-2.78,71.54-1.81,104,4.82,6.89,1.41,13.44,3.13,20.05,5.34.23.08.34.21.43.32h1.49l-75.65-73.3Z"/><path class="b" d="M601.39,89.82v14.35c-1.81.18-3.67.09-5.6.02l-.07-12.73c0-1.27-.32-2.74-1.4-3.49-1.5-1.05-3.86-.89-5.21.33-1.07.96-1.38,2.46-1.39,3.86l-.1,12.05-5.7-.04.02-20.81h5.39c.12,1.02-.09,1.78.16,2.79,1.76-2.48,4.51-3.66,7.55-3.33,1.73.19,3.43.61,4.61,1.95,1.25,1.4,1.74,3.27,1.74,5.04Z"/><path class="b" d="M1.65.09l84.14,68.04L184.95.09H1.65ZM85.67,59.5c-4.06.88-8.23-1.63-9.27-5.77-1.03-4.13,1.4-8.54,5.85-9.56,4.42-1.01,8.51,1.77,9.44,5.99.92,4.17-1.72,8.41-6.03,9.34Z"/><polygon class="b" points="191.2 184.72 98.81 71.67 191.2 0 191.2 184.72"/><path class="b" d="M257.61,141.5c.06-.62-.04-.78-.29-.47-.39.97-.82,1.88-1.34,2.93l-10.42,20.78c-1.24.11-2.27.11-3.58,0l-1.59-24.7c-.5,1.33-.71,2.64-1.13,4.07l-5.97,20.63c-1.35.11-2.53.08-4.09.01l8.93-29.62c1.96-.16,3.81-.1,5.88-.03l1.24,20.33c.06.97-.06,1.77-.07,2.77l1.81-4.04,9.41-19.06h5.91s-3.75,29.63-3.75,29.63c-1.43.12-2.65.1-4.11,0l3.17-23.24Z"/><polygon class="b" points="255.66 104.2 249.33 104.19 249.31 91.82 237.67 91.8 237.63 104.2 231.3 104.19 231.3 75.45 237.63 75.44 237.65 86.43 249.29 86.46 249.33 75.46 255.65 75.41 255.66 104.2"/><path class="b" d="M349.92,104.23l-.11-12.94c0-1.2-.35-2.57-1.37-3.3-1.48-1.06-3.83-.91-5.2.29-1.06.92-1.4,2.4-1.41,3.76l-.1,12.16h-5.71s0-28.72,0-28.72l5.71-.03.1,10.8c1.97-2.81,4.93-3.87,8.17-3.32,2.53.43,4.58,1.89,5.16,4.52.34,1.11.46,2.34.46,3.56v13.18s-5.69.04-5.69.04Z"/><path class="b" d="M415,103.83c-3.4,1.32-7.19,1.29-10.53.08-2.78-1.01-4.56-3.42-4.59-6.39l5.38-.05c.1,1.48.88,2.63,2.26,3.11,2.3.79,5.82.36,5.92-2.18.17-4.38-13.56-1.44-13.11-9.37.38-6.79,9.23-6.99,13.71-5.53,2.64.85,4.39,3.05,4.54,5.9h-5.41c-.16-1.29-.84-2.17-1.98-2.49-1.59-.45-4.9-.53-5.11,1.42-.49,4.56,13.64,1.26,13.1,9.68-.17,2.6-1.55,4.82-4.18,5.84Z"/><path class="b" d="M437.62,103.82c-3.42,1.34-7.2,1.3-10.55.09-2.82-1.02-4.63-3.54-4.56-6.43h5.34c.12,1.59,1.05,2.8,2.58,3.22s3.26.4,4.61-.48c.72-.47,1.02-1.24.98-2.04-.2-4.01-13.47-1.38-13.11-9.07.32-6.88,9.23-7.07,13.72-5.62,2.65.86,4.42,3.09,4.53,5.91h-5.39c-.15-1.24-.78-2.12-1.87-2.46-1.59-.5-5-.6-5.23,1.39-.52,4.49,13.44,1.3,13.11,9.5-.11,2.66-1.49,4.96-4.16,6.01Z"/><path class="b" d="M473.84,148.93c.19-.94.04-1.79-.45-2.26-2.3-2.24-7.85,2.13-8.57,4.05-1.69,4.53-1.88,9.35-3.31,13.99-1.23.15-2.58.09-3.87.02l5.27-24.91c.39-1.85.45-3.54.11-5.43l4.11-1.52c.97,3.9-.85,9.42-1.7,13.53,2.57-2.49,5.44-4.05,8.81-3.74,1.25.12,2.37.73,2.97,1.46.89,1.09,1.08,2.39.8,3.74l-3.54,16.87c-1.31.14-2.45.07-3.87.03l3.26-15.82Z"/><path class="b" d="M382.06,148.89c.2-.98-.01-1.87-.6-2.37-2.28-1.93-7.29,2.13-8.68,4.18l-2.97,14.03c-1.3.1-2.52.11-3.97,0l5.27-24.83c.4-1.87.46-3.57.13-5.53,1.39-.56,2.71-1.06,4.14-1.47.83,4.29-.81,8.96-1.72,13.48,2.5-2.4,5.34-3.99,8.69-3.71,1.29.11,2.45.69,3.12,1.53.84,1.05,1.02,2.37.73,3.72l-3.53,16.77c-1.27.19-2.47.13-3.9.04l3.28-15.85Z"/><path class="b" d="M476.63,97.15c.74,2.32,2.57,3.51,4.78,3.31s3.75-1.83,4.01-4.19h5.52c-.33,3.19-2.08,6.14-5.1,7.51-2.78,1.25-5.91,1.35-8.8.36-6.22-2.13-7.9-9.24-5.79-14.94,1.22-3.31,3.99-5.6,7.47-6.2,5.52-.95,11.72,1.4,12.11,7.65l-5.57.04c-.31-2.04-1.65-3.38-3.67-3.56s-3.77.74-4.62,2.64c-1.01,2.27-1.11,4.91-.33,7.38Z"/><path class="b" d="M332,99.86v4.37c-3.38.47-9.87.86-9.89-4.32l-.04-12.7-3.41-.07-.02-3.75,3.4-.08.1-6.2h5.68s.02,6.18.02,6.18l4.12.09c.12,1.26.09,2.49.02,3.77l-4.15.07.03,11.03c0,.98.71,1.6,1.62,1.67.82.06,1.51-.03,2.51-.06Z"/><path class="b" d="M541.73,99.86l.03,4.38c-3.21.49-9.85.78-9.87-4.12l-.06-12.86-3.43-.12c-.05-1.27-.08-2.49.02-3.74l3.34-.06.12-6.22h5.64s.07,6.15.07,6.15l4.11.11c.13,1.19.05,2.36.05,3.72l-4.17.11.03,11.05c0,.92.64,1.54,1.49,1.64s1.51,0,2.62-.05Z"/><path class="b" d="M301.59,146.71c-1.64-2.47-7.89,2.31-8.28,4.07l-3.15,13.96c-1.26.11-2.54.08-3.87,0l3.37-15.8c.35-1.64.45-3.15.06-4.84l3.61-1.61c.7,1.28.55,2.62.53,4.19,2.29-3.16,8.67-5.74,11.24-2.76.78.9,1.3,2.32,1.01,3.68l-3.58,17.17c-1.41.06-2.53.09-3.95-.01l3.38-16.41c.12-.6-.11-1.22-.38-1.62Z"/><path class="b" d="M495.16,166.47c-.59,2.93-1.78,5.4-3.61,7.48l-2.88-1.92c1.34-2,2.3-4.09,2.78-6.54l3.8-19.34c-.71-.27-1.38-.03-2.11-.21.09-.95.28-1.82.51-2.78l2.14-.13c.38-1.67.58-3.3,1.14-4.89,1.07-3.05,3.7-4.89,6.94-4.82,1.61.03,3.21.13,4.55,1.12-.45,1-.95,1.88-1.54,2.75-1.15-.62-2.34-1.03-3.64-.77-2.94.58-2.98,4.23-3.39,6.62l5.74.09c-.53,1.05-1.05,1.97-1.7,2.87l-4.6.07-4.11,20.41Z"/><polygon class="b" points="315.29 104.19 309.55 104.18 309.55 75.46 315.27 75.42 315.29 104.19"/><path class="b" d="M453.52,164.5c-1.8.84-3.85,1.18-5.82.75-3.01-.66-2.79-3.89-2.28-6.32l2.66-12.82-2.53-.16c.1-.98.26-1.87.52-2.8l2.66-.14,1.46-5.23c1.34-.4,2.65-.66,4.22-.95-.5,2.13-1.33,4.05-1.59,6.21l5.12.1c-.46,1.02-.9,1.97-1.5,2.86l-4.4.06-2.82,13.59c-.17.83-.14,2.01.58,2.47,1.07.68,2.35.32,3.62.02.21.66.08,1.34.11,2.36Z"/><path class="b" d="M318.9,164.47c-1.7.96-3.79,1.16-5.67.81-3.25-.6-2.85-4.19-2.33-6.66l2.61-12.51-2.53-.15c.06-.95.26-1.84.51-2.8l2.65-.12,1.51-5.28c1.45-.32,2.79-.75,4.23-.86-.65,2.14-1.27,3.97-1.66,6.11l5.14.19c-.46,1.01-.9,1.89-1.42,2.78l-4.45.09-2.81,13.51c-.17.83-.18,2.05.52,2.53,1.08.74,2.41.34,3.68.05.14.66.18,1.55.05,2.32Z"/><path class="b" d="M590.78,164.66c-1.14.72-2.79.73-4.12.41-1.46-.35-2.25-1.87-1.93-3.42l4.63-22.5c.35-1.68.27-3.19.03-4.82l4.16-1.47c.45,2.12.32,4.3-.15,6.54l-4.49,21.31c-.11.54.07,1.1.39,1.42.22.22.87,0,1.2.23.41.32.37,1.59.29,2.29Z"/><path class="b" d="M579.69,164.74c-1.15.52-2.38.61-3.69.45-1.71-.21-2.77-1.75-2.4-3.55l4.54-21.98c.37-1.79.41-3.42.13-5.3l4.15-1.49c.42,2.13.32,4.26-.14,6.47l-4.5,21.34c-.11.5.02.93.2,1.25.23.42.87.3,1.35.33.49.59.3,1.6.37,2.47Z"/><path class="b" d="M439.59,164.72c-1.38.58-2.91.76-4.41.3-1.32-.41-2.04-1.86-1.74-3.31l4.49-21.73c.4-1.94.5-3.72.17-5.64l4.16-1.46c.44,2.08.33,4.22-.13,6.41l-4.51,21.48c-.11.52,0,1.06.36,1.33.27.2.74.27,1.3.16.29.75.19,1.51.31,2.48Z"/><path class="b" d="M351.46,164.75c-1.35.54-2.79.71-4.25.3s-2.15-1.88-1.83-3.41l4.54-22c.37-1.79.42-3.43.1-5.24,1.37-.58,2.71-1.09,4.22-1.51.34,2.2.28,4.28-.18,6.46l-4.49,21.29c-.11.51,0,.95.2,1.31.22.39.86.31,1.36.32.45.62.3,1.59.34,2.49Z"/><path class="b" d="M551.75,104.14c-1.89.22-3.66.05-5.73.09l-.02-20.81,5.73-.04.02,20.76Z"/><polygon class="b" points="500.96 104.14 495.23 104.22 495.21 83.41 500.93 83.38 500.96 104.14"/><path class="b" d="M540.93,146.81c-2.99-1.26-6.84,3.01-7.14,4.36l-3.02,13.56c-1.25.11-2.53.09-3.87,0l3.3-15.71c.35-1.68.44-3.24.04-4.94l3.66-1.6c.65,1.43.46,2.82.4,4.42,1.97-2.3,5-5.3,8.31-4.05l-1.68,3.95Z"/><polygon class="b" points="500.93 80.08 495.24 80.1 495.22 75.45 500.88 75.41 500.93 80.08"/><polygon class="b" points="551.72 80.09 546.03 80.09 546.01 75.45 551.67 75.41 551.72 80.09"/><path class="b" d="M257.61,141.5c-.02-.19-.1-.39-.29-.47.24-.23.2-.43.34-.72.44.39,0,.83-.05,1.19Z"/><path class="b" d="M387.4,75.42h-6.51s-10.91,28.78-10.91,28.78l6.35.04,2.31-6.42h10.79s2.17,6.38,2.17,6.38h6.57s-10.77-28.78-10.77-28.78ZM380.31,93.03l3.78-10.56,3.61,10.59-7.39-.03Z"/><path class="b" d="M304.1,100.38l-.02-11.75c0-2.35-1.38-4.28-3.68-5.03-5.23-1.71-15-1.28-15.26,6.13h5.68c.16-1.26.69-2.39,1.91-2.78,1.42-.46,3.1-.53,4.48.17,1.22.63,1.55,2.66.57,3.6-2.45,2.36-13.53-.4-13.35,7.9.06,2.51,1.3,4.69,3.67,5.55,3.54,1.27,7.58.61,10.39-1.8l.49,1.82,5.71-.02c-.41-1.29-.6-2.48-.6-3.8ZM294.6,100.9c-1.34.13-2.6.09-3.58-.63-.84-.63-.94-1.69-.76-2.72.5-2.88,5.81-2.14,8.02-3.37.28,2.82.02,6.38-3.69,6.72Z"/><path class="b" d="M576.65,89.37c-1.98-5.69-8.16-7.58-13.54-6.11-6.47,1.77-8.53,8.82-6.69,14.64.99,3.13,3.37,5.46,6.52,6.38,5.39,1.57,11.68-.3,13.7-6.02,1.02-2.89,1.02-5.99,0-8.88ZM571.09,97.32c-.66,1.91-2.22,3.1-4.36,3.16-2.23.06-3.95-1.13-4.63-3.14-.77-2.26-.76-4.79-.01-7.05.69-2.07,2.44-3.19,4.53-3.18,2.06.01,3.8,1.12,4.49,3.16.76,2.27.77,4.8,0,7.05Z"/><path class="b" d="M459.99,83.44c-5.48-1.83-12.18.06-14.18,6.11-1.86,5.65-.03,12.69,6.25,14.66,5.41,1.69,11.86-.15,13.92-5.97,1.96-5.56.21-12.72-6-14.8ZM460.43,97.34c-.66,1.92-2.25,3.1-4.39,3.14-2.22.05-3.91-1.13-4.6-3.12-.78-2.26-.77-4.8-.02-7.07.7-2.12,2.53-3.24,4.66-3.18,2.02.05,3.69,1.17,4.36,3.18.75,2.26.76,4.79-.01,7.05Z"/><path class="b" d="M567.32,159.55c.96-5.19,2.07-10.22,3.34-15.4-5.86-3.22-13.1-1.59-16.64,4.02-2.32,3.66-3.33,8.06-2.7,12.34.29,1.97,1.5,3.85,3.4,4.4,3.39.99,6.94-.58,8.78-3.48.1,1.61.38,3.14,1.75,4.1l3.1-2.42c-.84-1.03-1.27-2.22-1.02-3.56ZM563.85,156.9c-.49,2.21-4.45,6.4-7.48,4.6-.49-.29-1.01-1.1-1.07-1.95-.25-3.65.42-7.43,2.43-10.43,1.94-2.9,5.21-4.21,8.49-2.9l-2.37,10.68Z"/><path class="b" d="M429.63,147.66c.25-1.22.7-2.24.86-3.51-5.59-3.09-12.66-1.74-16.31,3.57-2.58,3.75-3.67,8.4-3,12.87.3,2.02,1.61,3.88,3.55,4.38,3.4.89,6.79-.73,8.66-3.54,0,1.61.36,3.23,1.74,4.08l3.07-2.4c-1.02-1.15-1.27-2.54-.96-4.02l2.39-11.43ZM423.67,156.99c-.48,2.17-4.6,6.43-7.54,4.46-2.16-1.45-.62-8.1.48-10.63,1.62-3.69,5.3-6.25,9.44-4.58l-2.39,10.75Z"/><path class="b" d="M340.97,150.41c.43-2.09.89-4,1.51-6.2-5.6-3.22-12.87-1.78-16.5,3.68-2.47,3.71-3.52,8.24-2.88,12.62.3,2.04,1.58,3.94,3.55,4.45,3.39.89,6.8-.7,8.65-3.53.04,1.6.38,3.15,1.72,4.09l3.11-2.42c-1.04-1.12-1.28-2.53-.97-3.99l1.8-8.71ZM335.63,156.9c-.48,2.18-4.39,6.35-7.44,4.63-.52-.29-1.05-1.11-1.11-1.96-.27-3.65.42-7.45,2.43-10.46,1.94-2.9,5.21-4.19,8.48-2.89l-2.36,10.68Z"/><path class="b" d="M523.47,147.96c-.47-2.82-2.56-4.77-5.31-5.26-4.32-.77-8.46,1.07-11.03,4.66-3.74,5.22-5.22,16.11,2.08,17.68,4.6.99,9.1-.89,11.75-4.96,2.36-3.63,3.21-7.98,2.52-12.13ZM512.22,162.16c-2.01.05-3.55-1.11-3.73-3.01-.46-4.73,1.27-13.12,6.86-13.46,1.95-.12,3.69,1,3.89,3.02.46,4.54-1.14,13.3-7.02,13.46Z"/><path class="b" d="M403.53,154.44c2.83-1.01,4.79-3.37,4.76-6.34-.02-2.42-1.31-4.44-3.62-5.14-3.79-1.14-7.71-.02-10.44,2.92-3.23,3.47-4.85,8.27-4.4,12.98.39,4.09,3.62,6.59,7.59,6.47,3.16-.09,6.17-.81,8.43-3.17-.37-.84-.84-1.61-1.39-2.43-2.05,1.76-4.49,2.73-7.24,2.27-3.25-.54-3.65-4.41-2.74-6.76,3.22.21,6.2.21,9.07-.81ZM401.67,145.61c1.73.13,2.81,1.43,2.56,3.22-.53,3.89-6.22,3.67-9.21,3.46.72-3.18,2.99-6.95,6.65-6.68Z"/><path class="b" d="M525.05,100.15v-11.52c-.02-2.38-1.42-4.3-3.74-5.05-5.19-1.67-14.9-1.28-15.22,6.13l5.7.03c.11-1.54.97-2.69,2.46-2.97,1.98-.38,4.69-.29,5.01,2.11.51,3.76-5.35,2.46-9.96,4.04-2.53.86-3.97,2.9-3.9,5.72.06,2.52,1.3,4.67,3.65,5.52,3.52,1.28,7.58.64,10.38-1.8.32.63.21,1.27.61,1.86h5.59c-.37-1.36-.59-2.64-.59-4.08ZM515.61,100.89c-1.13.11-2.37.17-3.44-.49-1.02-.63-1.15-1.78-.95-2.85.54-2.91,5.95-2.14,8.01-3.38.34,2.85-.01,6.38-3.62,6.73Z"/><path class="b" d="M281.25,95.18c.5-6.55-3.22-12.53-10.3-12.4-4.6.09-8.52,2.81-9.89,7.25-1.65,5.37.18,12.02,5.93,14.05,5.61,1.98,12.08.08,13.89-6.26h-5c-.93,1.95-2.79,2.59-4.68,2.66-3.02.1-5.13-2.2-4.9-5.29h14.95ZM270.63,87.14c2.6-.32,4.62,1.41,4.81,4.33l-9.12.08c-.11-2.41,1.87-4.41,4.31-4.41Z"/><path class="b" d="M279.13,154.4c2.98-1.09,4.89-3.68,4.62-6.8-.18-2.15-1.39-3.93-3.49-4.6-3.68-1.17-7.59-.17-10.34,2.67-3.46,3.56-5.17,8.67-4.54,13.59.5,3.9,3.71,6.17,7.46,6.08,3.2-.07,6.22-.83,8.5-3.18-.42-.85-.84-1.64-1.44-2.41-2.01,1.74-4.39,2.66-7.08,2.28-3.32-.46-3.8-4.27-2.9-6.78,3.23.2,6.29.22,9.19-.85ZM273.66,146.77c1.49-1.26,3.81-1.7,5.33-.38.88.77.93,2.11.54,3.21-1.08,3.09-6.28,2.92-8.98,2.67.51-2.16,1.44-4.08,3.11-5.5Z"/><path class="b" d="M457.12,55.79l-.1-20.34-7.08,20.29c-1.67.08-3.25.14-4.91-.04l-7.04-19.9-.13,19.96h-5.92s0-28.78,0-28.78l8.92-.03,6.81,19.82,6.44-19.81h8.91s0,28.8,0,28.8l-5.91.03Z"/><path class="b" d="M248.22,49.82c1.64-1.29,2.22-3.15,2.56-5.11h6.11c-.72,7.65-6.12,12.11-13.67,11.74-5.56-.27-10.21-3.57-12.1-8.84-2.91-8.09.05-18.7,9.34-20.9,7.5-1.78,15.34,1.82,16.17,9.92h-6.06c-.63-3.08-3.29-5.03-6.4-5.04s-5.62,1.63-6.77,4.49c-1.95,4.83-1.22,12.76,3.93,14.54,2.45.85,4.95.73,6.89-.81Z"/><path class="b" d="M505.35,39.56c-1.54-1.14-4.01-.9-5.32.36-1.09,1.06-1.33,2.63-1.33,4.09l-.07,11.76-5.72-.02v-20.8s5.41-.01,5.41-.01l.19,2.74c1.86-2.63,4.75-3.66,7.93-3.28,4.68.56,6.08,3.86,6.07,8.21v13.15s-5.71.02-5.71.02l-.08-12.71c0-1.23-.25-2.7-1.37-3.52Z"/><path class="b" d="M297.76,39.62c-1.55-1.23-4.1-.98-5.43.34-1.06,1.06-1.3,2.61-1.3,4.06l-.06,11.75h-5.7s0-20.79,0-20.79l5.39-.07.18,2.85c2.57-4.35,9.99-4.41,12.45-1.11,1.05,1.41,1.52,3.19,1.53,5.01l.05,14.1h-5.71s-.09-12.83-.09-12.83c0-1.13-.26-2.5-1.28-3.32Z"/><path class="b" d="M407.5,39.63c-1.54-1.23-4.11-1.01-5.44.32-1.07,1.06-1.31,2.61-1.31,4.06l-.06,11.75h-5.7s-.01-20.79-.01-20.79l5.39-.06.18,2.85c2.61-4.43,10.27-4.46,12.64-.84.9,1.37,1.33,3.04,1.33,4.74l.05,14.11h-5.69s-.09-12.79-.09-12.79c0-1.15-.24-2.53-1.28-3.36Z"/><path class="b" d="M529,51.37v4.44c-3.46.46-9.84.76-9.86-4.28l-.06-12.76-3.38-.06c-.12-1.27-.08-2.49-.02-3.77l3.4-.08.05-6.17h5.68s.06,6.17.06,6.17l4.13.09.02,3.74-4.16.08v11.02c0,.87.58,1.53,1.39,1.65.88.12,1.64.06,2.74-.06Z"/><polygon class="b" points="562.86 55.72 557.14 55.76 557.13 27.01 562.84 26.96 562.86 55.72"/><polygon class="b" points="365.48 55.72 359.75 55.77 359.74 34.98 365.47 34.94 365.48 55.72"/><polygon class="b" points="365.48 31.6 359.78 31.64 359.79 26.97 365.43 26.95 365.48 31.6"/><path class="b" d="M354.34,26.98h-5.7s-.11,10.35-.11,10.35c-1.49-1.87-3.39-2.82-5.64-2.96-3.83-.25-7.11,1.78-8.67,5.29-1.6,3.76-1.52,8.1.29,11.78,1.6,3.26,4.75,5.08,8.49,4.89,2.53-.13,4.49-1.22,5.8-3.1l.18,2.55,5.36-.03v-28.78ZM344.61,51.99c-2.12.25-3.99-.69-4.92-2.68-1.14-2.43-1.15-5.36-.13-7.86.73-1.81,2.37-2.77,4.26-2.8,2.08-.03,3.76,1.12,4.43,3.11,1.1,3.24.91,9.69-3.64,10.23Z"/><path class="b" d="M389.59,51.76l-.03-11.71c-.02-6.41-9.81-6.35-14.21-4.91-2.81.92-4.71,3.3-4.71,6.17l5.7-.04c.11-1.52.97-2.68,2.45-2.94,1.27-.22,2.61-.29,3.83.3,1.28.61,1.68,2.69.64,3.67-2.47,2.34-13.6-.41-13.33,7.96.08,2.48,1.3,4.58,3.59,5.44,3.54,1.32,7.59.67,10.48-1.76.28.68.19,1.23.54,1.83h5.64c-.41-1.38-.59-2.61-.59-4ZM380.23,52.43c-1.18.13-2.47.18-3.57-.52-.98-.63-1.07-1.74-.9-2.79.47-2.92,5.88-2.17,8.01-3.4.33,2.84,0,6.31-3.54,6.7Z"/><path class="b" d="M279.87,51.99l-.02-11.74c-.01-6.78-9.98-6.52-14.24-5.11-2.8.93-4.7,3.31-4.68,6.16h5.67c.12-1.52.98-2.71,2.48-2.97,1.25-.22,2.59-.28,3.81.29,1.3.61,1.71,2.71.64,3.7-2.5,2.31-13.57-.4-13.31,7.94.08,2.53,1.36,4.66,3.71,5.49,3.48,1.22,7.45.65,10.35-1.83l.51,1.86,5.7-.03c-.44-1.27-.62-2.45-.62-3.75ZM270.68,52.4c-1.17.17-2.47.23-3.6-.39-1.1-.6-1.24-1.76-1.05-2.89.48-2.91,5.87-2.17,8-3.39.33,2.73.05,6.18-3.34,6.67Z"/><path class="b" d="M328.8,52l-.04-11.99c-.02-6.4-9.93-6.35-14.36-4.82-2.73.94-4.52,3.28-4.55,6.09l5.66.02c.19-1.26.69-2.38,1.92-2.8,1.7-.58,5.22-.76,5.58,1.99.48,3.66-5.3,2.42-9.97,3.99-2.51.85-3.92,2.88-3.9,5.57.01,2.55,1.24,4.82,3.71,5.69,3.49,1.23,7.5.64,10.35-1.82l.53,1.84h5.67c-.37-1.26-.59-2.44-.6-3.76ZM319.26,52.45c-1.28.11-2.51.08-3.48-.6-.87-.62-1-1.66-.83-2.69.48-2.99,5.82-2.16,8.03-3.46.29,2.73.1,6.42-3.72,6.75Z"/><path class="b" d="M551.71,51.99l-.05-11.97c-.02-6.4-9.9-6.33-14.3-4.85-2.78.94-4.63,3.34-4.6,6.14l5.68-.03c.14-1.31.72-2.41,1.94-2.79,1.4-.44,3.02-.5,4.4.17,1.24.61,1.6,2.65.62,3.61-2.43,2.38-13.62-.41-13.35,7.99.08,2.5,1.33,4.61,3.64,5.45,3.52,1.28,7.59.65,10.39-1.79l.58,1.84h5.66c-.46-1.35-.61-2.49-.61-3.78ZM542.39,52.42c-1.18.14-2.48.2-3.59-.49-1-.61-1.11-1.77-.96-2.7.49-3.13,5.84-2.21,8.06-3.54.28,2.9-.03,6.3-3.5,6.72Z"/><path class="b" d="M488.63,46.74c.53-6.32-2.98-12.29-9.91-12.4-4.79-.07-8.92,2.74-10.3,7.36-1.65,5.58.43,12.34,6.51,14.12,5.65,1.65,11.64-.36,13.31-6.44l-4.95-.03c-.91,1.88-2.69,2.61-4.58,2.68-1.48-.01-2.9-.38-3.84-1.47-.83-.97-1.3-2.41-1.18-3.8l14.93-.02ZM473.67,43.1c.01-2.63,2.13-4.56,4.81-4.45,1.27.06,2.47.37,3.26,1.4.61.84,1,1.72,1.14,3.01l-9.21.04Z"/></svg>