<svg width="242" height="204" viewBox="0 0 242 204" fill="none" xmlns="http://www.w3.org/2000/svg">
<path d="M140.004 0.5C194.377 0.5 239.713 31.3236 275.318 91.4678L278.103 96.2734L278.655 97.5029L279.023 98.5225L279.19 99.1777L279.365 100.198L279.5 101.428V102.771L279.329 104.131C279.249 104.581 279.144 105.026 279.015 105.465L278.531 106.807L278.091 107.727L277.898 108.089C243.047 169.172 198.601 201.432 145.236 203.408L143.975 203.449L139.999 203.499C84.2862 203.497 38.0862 171.152 2.11035 108.076C1.05513 106.226 0.5 104.131 0.5 102C0.5 99.8687 1.05513 97.7744 2.11035 95.9238C38.0872 32.8461 84.2889 0.500158 140.004 0.5ZM140.004 63.25C129.744 63.2501 119.905 67.3327 112.65 74.5996C105.396 81.8667 101.32 91.7231 101.32 102C101.32 112.277 105.396 122.133 112.65 129.4C119.905 136.667 129.744 140.75 140.004 140.75C150.264 140.75 160.104 136.667 167.358 129.4C174.613 122.133 178.688 112.277 178.688 102C178.688 91.7231 174.613 81.8667 167.358 74.5996C160.104 67.3326 150.264 63.25 140.004 63.25Z" stroke="#F7F7FC"/>
<path d="M116 100.13L133.231 118L164 86" stroke="#F7F7F7" stroke-linecap="round"/>
</svg>
