<svg width="25" height="25" viewBox="0 0 25 25" fill="none" xmlns="http://www.w3.org/2000/svg">
<path d="M18.3552 0L6.22604 0.00416661C4.79896 0.00416661 3.35521 0.363536 2.30729 1.1604C1.57259 1.69429 0.993655 2.41454 0.630208 3.24683C0.242708 4.09369 0 5.22909 0 6.19887L0.0125 18.907C0.0145833 20.5778 0.511458 22.0914 1.53437 23.1903C2.55937 24.2903 4.09896 24.9434 6.04583 24.9517L17.5583 24.9996C18.8708 25.0048 20.7823 24.9621 22.0406 24.2559C23.1604 23.6257 24.15 22.6351 24.6417 21.1476C24.9312 20.2726 25.001 18.9768 25 17.8695L24.9781 6.27595C24.976 5.35097 24.8219 4.16869 24.4083 3.21975C23.9656 2.20309 23.1781 1.32915 21.9896 0.69374C21.201 0.270829 19.9187 0 18.3552 0ZM18.3552 0.968736C19.7906 0.968736 20.9989 1.27602 21.5219 1.55727C22.5396 2.10205 23.1302 2.77184 23.4896 3.59891C23.8177 4.34994 23.9792 5.46659 23.9823 6.27803L24.001 17.8716C24.0031 18.9268 23.9 20.2226 23.6906 20.8507C23.2781 22.1028 22.4969 22.8778 21.5417 23.4153C20.6937 23.8913 18.8208 24.033 17.5625 24.0278L6.05208 23.9819C4.32604 23.9747 3.10208 23.4257 2.275 22.5382C1.45 21.6518 1.0125 20.3924 1.0125 18.9081L1.04062 6.19783C1.04062 5.3343 1.24479 4.29473 1.53437 3.65932C1.89375 2.87079 2.31562 2.40205 2.95625 1.9156C3.73437 1.3229 5.07083 1.0104 6.33333 1.0104L18.3552 0.968736ZM12.4594 4.53431C10.401 4.62702 9.12187 6.26137 9.11145 7.96134C9.13125 9.46445 10.8146 11.5873 12.1156 12.68C12.2406 12.7832 12.276 12.7936 12.4594 12.8675C12.524 12.8936 12.6656 12.8186 12.8 12.7269C13.175 12.4717 13.8344 11.7405 14.5167 10.9165C14.9484 10.3806 15.3093 9.79143 15.5906 9.16341C16.0167 8.23634 15.8625 7.49781 15.8354 7.19677C15.6432 6.53284 15.2888 5.92716 14.8042 5.4343C14.1608 4.85454 13.3254 4.53389 12.4594 4.53431ZM16.8052 12.7863C15.6518 12.8132 14.5105 13.0278 13.426 13.4217C13.2698 13.4821 13.1552 13.5258 13.0365 13.5988C12.9771 13.6363 12.9219 13.7394 12.9271 13.9029C12.9448 14.354 13.2292 15.2342 13.5771 16.2675C13.9771 17.4497 14.6875 18.632 15.4979 19.1216C15.8899 19.3569 16.3258 19.5099 16.7789 19.5711C17.232 19.6324 17.6929 19.6007 18.1333 19.4778C19 19.2247 19.7948 18.5737 20.1771 17.8675C21.2042 15.9737 20.375 14.1717 19.0094 13.2665C18.5437 12.9581 17.8292 12.8029 17.0406 12.7873L16.8052 12.7863ZM8.02187 12.8259C7.75999 12.8257 7.49837 12.8421 7.23854 12.8748C6.6177 12.9561 6.26771 13.1592 5.89479 13.4061C5.16934 13.8807 4.65886 14.6208 4.47291 15.4675C4.39479 16.0425 4.38333 16.5643 4.50729 17.0373C4.95833 18.4841 5.88854 19.3518 7.47291 19.5914C8.13541 19.6206 8.9 19.5258 9.54583 19.1226C10.8677 18.3081 11.7125 15.8206 12.0583 14.1831C12.1135 13.9998 12.0948 13.8113 12.0448 13.7456C12.0396 13.6758 11.999 13.6279 11.8469 13.555C11.4323 13.355 10.4719 13.1206 9.37291 12.93C8.92631 12.8573 8.47435 12.8224 8.02187 12.8259Z" fill="#B9CCF5"/>
</svg>
