<?xml version="1.0" encoding="UTF-8"?><svg id="a" xmlns="http://www.w3.org/2000/svg" viewBox="0 0 473.11 315"><defs><style>.b{fill:#f7f7fc;}</style></defs><path class="b" d="M243.92,315h-16c-1.43-1.3-3.19-1.21-4.9-1.08-6.75.52-12.35-.27-19.24-.79-67.58-5.19-132.98-23.23-194.63-51.15-5.84-2.65-9.76-5.54-9.08-12.87l15.06-23.79c2.38-3.76,7.17-5.61,11.51-3.93,56.88,21.9,110.56,42.58,172.63,46.17l16.16.94c12.74.74,25.53.95,38.48.17l16.91-1.02c32.87-1.98,64.3-8.32,95.88-17.91,27-8.2,52.29-18.36,78.56-28.28,5.29-2,10.58,1.95,13.06,6.01l11.8,19.3c3.06,5.01-.95,12.15-8.21,15.46-60.99,27.84-125.92,45.46-192.85,50.86-6.9.56-12.46,1.33-19.21.86-2.22-.16-4.56-.31-5.93,1.04Z"/><path class="b" d="M266.92,0l2.98,4.1v80.81c.01,3.42-2.68,6.07-6.03,6.07h-55.9c-3.35,0-6.04-2.65-6.04-6.07V4.1s2.99-4.1,2.99-4.1h62Z"/><path class="b" d="M271.73,216.88c-24.58,22.59-65.05,16.7-81.4-12.42-8.82-15.71-7.27-35.85,3.9-50.06,18.79-23.87,54.06-27.05,76.4-7.29,9.34,8.26,15.46,18.48,16.42,30.75,1.2,15.41-4.14,28.73-15.32,39.02Z"/><path class="b" d="M439.19,162.55c-1.22,3.36-3.88,5.53-7.19,4.33l-53.41-19.39c-3.12-1.13-4.58-4.07-3.4-7.28l34.24-93.55c1.39-3.79,5.89-2.69,8.55-1.71l51.94,19.01c2.27.83,3.87,3.36,2.91,5.99l-33.64,92.59Z"/><path class="b" d="M349.11,116.25l-51.42-8.94c-2.36-.41-3.68-1.39-4.72-2.9-1.24-1.82-.79-3.29-.36-5.72l14.84-83.91c1.53-1.17,2.94-3.25,4.79-3.48l54.69,9.61c4.07.72,5.6,4.25,4.92,8.08l-14.74,83.14c-.61,3.47-4.55,5.76-8.01,4.13Z"/><path class="b" d="M122.6,185.31l-43.58,25.71c-3.53,2.09-6.57.64-8.54-2.7l-43.01-72.81c-1.33-2.25-3.27-6.53-.3-8.3l83.89-49.89c1.86-1.11,3.34-2.28,5.2-2.05s3.5,1.78,4.66,3.76l19.99,33.88c2.23,3.43.97,6.82-2.36,8.77l-34.33,20.1,20.44,34.45c1.9,3.2,1.72,6.89-2.05,9.06Z"/><path class="b" d="M106.41,66.13c-3.81.68-8.01.51-8.83-3.93l-7.32-39.61c-.46-2.51-.83-7.94,2.69-8.56l62.92-11.17c2.59-.46,4.59,3.31,4.94,5.29l7.24,40.82c.62,3.47-1.84,6.53-5.1,7.11l-56.55,10.06Z"/></svg>