<svg width="33" height="27" viewBox="0 0 33 27" fill="none" xmlns="http://www.w3.org/2000/svg">
<path d="M2.74219 18.4C1.41406 16.675 0.75 15.8109 0.75 13.25C0.75 10.6875 1.41406 9.82656 2.74219 8.1C5.39375 4.65625 9.84062 0.75 16.375 0.75C22.9094 0.75 27.3563 4.65625 30.0078 8.1C31.3359 9.82813 32 10.6891 32 13.25C32 15.8125 31.3359 16.6734 30.0078 18.4C27.3563 21.8437 22.9094 25.75 16.375 25.75C9.84062 25.75 5.39375 21.8437 2.74219 18.4Z" stroke="#B9CCF5" stroke-width="1.5"/>
<path d="M21.0625 13.25C21.0625 14.4932 20.5686 15.6855 19.6896 16.5646C18.8105 17.4436 17.6182 17.9375 16.375 17.9375C15.1318 17.9375 13.9395 17.4436 13.0604 16.5646C12.1814 15.6855 11.6875 14.4932 11.6875 13.25C11.6875 12.0068 12.1814 10.8145 13.0604 9.93544C13.9395 9.05636 15.1318 8.5625 16.375 8.5625C17.6182 8.5625 18.8105 9.05636 19.6896 9.93544C20.5686 10.8145 21.0625 12.0068 21.0625 13.25Z" stroke="#B9CCF5" stroke-width="1.5"/>
</svg>
