<svg width="19" height="27" viewBox="0 0 19 27" fill="none" xmlns="http://www.w3.org/2000/svg">
<path d="M4.9171 9.0842C3.81192 9.0842 2.752 8.64517 1.97052 7.86368C1.18903 7.0822 0.75 6.02228 0.75 4.9171C0.75 3.81192 1.18903 2.752 1.97052 1.97052C2.752 1.18903 3.81192 0.75 4.9171 0.75H9.08357V9.0842M4.9171 9.0842H9.08357M4.9171 9.0842C3.81208 9.0842 2.75232 9.52317 1.97096 10.3045C1.18959 11.0859 0.750625 12.1457 0.750625 13.2507C0.750625 14.3557 1.18959 15.4155 1.97096 16.1968C2.75232 16.9782 3.81208 17.4171 4.9171 17.4171H9.08357V9.0842" stroke="#B9CCF5" stroke-width="1.5"/>
<path d="M17.4172 13.2506C17.4172 14.3558 16.9781 15.4157 16.1966 16.1972C15.4152 16.9787 14.3552 17.4177 13.2501 17.4177C12.1449 17.4177 11.0849 16.9787 10.3035 16.1972C9.52198 15.4157 9.08295 14.3558 9.08295 13.2506C9.08295 12.1454 9.52198 11.0855 10.3035 10.304C11.0849 9.52253 12.1449 9.0835 13.2501 9.0835C14.3552 9.0835 15.4152 9.52253 16.1966 10.304C16.9781 11.0855 17.4172 12.1454 17.4172 13.2506ZM4.91648 17.4183H9.08295V21.5848C9.0827 22.4088 8.83813 23.2142 8.38017 23.8992C7.9222 24.5842 7.2714 25.1181 6.51005 25.4332C5.74871 25.7484 4.91101 25.8307 4.10287 25.6698C3.29474 25.5089 2.55246 25.112 1.96989 24.5292C1.38733 23.9465 0.990631 23.2041 0.829968 22.3959C0.669305 21.5877 0.751888 20.7501 1.06728 19.9888C1.38266 19.2276 1.91669 18.5769 2.60184 18.1192C3.28698 17.6614 4.09248 17.4183 4.91648 17.4183Z" stroke="#B9CCF5" stroke-width="1.5"/>
<path d="M9.08594 0.75H13.2524C14.3576 0.75 15.4175 1.18903 16.199 1.97052C16.9805 2.752 17.4195 3.81192 17.4195 4.9171C17.4195 6.02228 16.9805 7.0822 16.199 7.86368C15.4175 8.64517 14.3576 9.0842 13.2524 9.0842H9.08594V0.75Z" stroke="#B9CCF5" stroke-width="1.5"/>
</svg>
