<svg width="36" height="36" viewBox="0 0 36 36" fill="none" xmlns="http://www.w3.org/2000/svg">
<path d="M1 18H2.88889M18 1V2.88889M33.1111 18H35M5.91111 5.91111L7.23333 7.23333M30.0889 5.91111L28.7667 7.23333M13.6556 27.4444H22.3444M12.3333 25.5556C10.7476 24.3662 9.57618 22.7081 8.98515 20.816C8.39411 18.924 8.41338 16.8939 9.04021 15.0134C9.66705 13.1329 10.8697 11.4973 12.4777 10.3383C14.0858 9.17924 16.0178 8.55556 18 8.55556C19.9822 8.55556 21.9142 9.17924 23.5223 10.3383C25.1303 11.4973 26.333 13.1329 26.9598 15.0134C27.5866 16.8939 27.6059 18.924 27.0148 20.816C26.4238 22.7081 25.2524 24.3662 23.6667 25.5556C22.9292 26.2856 22.3739 27.179 22.0458 28.1634C21.7176 29.1478 21.6258 30.1957 21.7778 31.2222C21.7778 32.2242 21.3798 33.185 20.6713 33.8935C19.9628 34.602 19.0019 35 18 35C16.9981 35 16.0372 34.602 15.3287 33.8935C14.6202 33.185 14.2222 32.2242 14.2222 31.2222C14.3742 30.1957 14.2824 29.1478 13.9542 28.1634C13.6261 27.179 13.0708 26.2856 12.3333 25.5556Z" stroke="#B9CCF5" stroke-width="2" stroke-linecap="round" stroke-linejoin="round"/>
</svg>
