<svg width="26" height="25" viewBox="0 0 26 25" fill="none" xmlns="http://www.w3.org/2000/svg">
<path d="M21.3952 3.98728e-06H4.60485C3.9999 -0.000787072 3.40075 0.116136 2.8417 0.344076C2.28265 0.572016 1.7747 0.906492 1.34694 1.32835C0.919183 1.7502 0.580024 2.25114 0.348893 2.80247C0.117762 3.35379 -0.000798091 3.94468 4.04311e-06 4.54127V20.4587C-0.000798091 21.0553 0.117762 21.6462 0.348893 22.1975C0.580024 22.7489 0.919183 23.2498 1.34694 23.6717C1.7747 24.0935 2.28265 24.428 2.8417 24.6559C3.40075 24.8839 3.9999 25.0008 4.60485 25H21.3952C22.0001 25.0008 22.5993 24.8839 23.1583 24.6559C23.7173 24.428 24.2253 24.0935 24.6531 23.6717C25.0808 23.2498 25.42 22.7489 25.6511 22.1975C25.8822 21.6462 26.0008 21.0553 26 20.4587V4.54127C26.0008 3.94468 25.8822 3.35379 25.6511 2.80247C25.42 2.25114 25.0808 1.7502 24.6531 1.32835C24.2253 0.906492 23.7173 0.572016 23.1583 0.344076C22.5993 0.116136 22.0001 -0.000787072 21.3952 3.98728e-06ZM15.8925 17.6282H13.6277C13.5895 17.6311 13.5515 17.6209 13.52 17.5994C13.4886 17.5778 13.4656 17.5463 13.455 17.51L12.5673 14.9579H8.53125L7.71875 17.4679C7.70987 17.5134 7.68415 17.554 7.6466 17.5817C7.60905 17.6095 7.56236 17.6225 7.51563 17.6182H5.48438C5.36657 17.6182 5.33407 17.5541 5.36657 17.4179L8.84 7.52204C8.8725 7.41386 8.905 7.29768 8.94766 7.16947C8.99207 6.94039 9.01384 6.70759 9.01266 6.47436C9.00958 6.44745 9.01684 6.42039 9.03301 6.3985C9.04918 6.37662 9.07309 6.36152 9.1 6.35617H11.9052C11.9925 6.35617 12.0352 6.38822 12.0473 6.44231L16.0002 17.4459C16.0327 17.5641 16.0002 17.6182 15.8925 17.6182V17.6282ZM19.63 17.508C19.63 17.6262 19.5873 17.6783 19.4898 17.6783H17.3652C17.3425 17.68 17.3197 17.6767 17.2985 17.6686C17.2773 17.6605 17.2582 17.6478 17.2426 17.6314C17.2271 17.6151 17.2154 17.5956 17.2085 17.5742C17.2015 17.5528 17.1996 17.5302 17.2027 17.508V9.27284C17.2027 9.16667 17.2473 9.1246 17.3448 9.1246H19.5C19.5975 9.1246 19.6402 9.17668 19.6402 9.27284L19.63 17.508ZM19.4025 7.85257C19.2748 7.98053 19.1208 8.08014 18.9509 8.14474C18.781 8.20934 18.5991 8.23744 18.4173 8.22716C18.2394 8.23103 18.0624 8.1999 17.8967 8.13559C17.7311 8.07127 17.58 7.97506 17.4525 7.85257C17.2032 7.58538 17.071 7.23184 17.0848 6.86899C17.0772 6.69297 17.1075 6.51735 17.1737 6.35369C17.2399 6.19004 17.3404 6.04205 17.4688 5.91947C17.7283 5.67626 18.0735 5.54195 18.4316 5.54487C18.6135 5.53559 18.7955 5.56415 18.9655 5.62868C19.1356 5.69322 19.29 5.79229 19.4188 5.91947C19.6582 6.17835 19.7863 6.51876 19.7763 6.86899C19.7835 7.04922 19.7542 7.22907 19.69 7.39797C19.6258 7.56687 19.5281 7.72143 19.4025 7.85257ZM11.9173 12.7885H9.165C9.3275 12.3397 9.49 11.8369 9.64235 11.2921C9.79469 10.7472 9.9775 10.2244 10.14 9.71154C10.288 9.2591 10.4107 8.79901 10.5077 8.33334H10.53C10.6052 8.58975 10.6823 8.86819 10.7677 9.16667C10.853 9.46515 10.9525 9.78566 11.0602 10.1182C11.1678 10.4507 11.2633 10.7692 11.375 11.0998C11.4867 11.4303 11.5781 11.7308 11.6675 12.0192C11.7569 12.3077 11.8523 12.5641 11.9173 12.7885Z" fill="#B9CCF5"/>
</svg>
