<svg width="25" height="25" viewBox="0 0 25 25" fill="none" xmlns="http://www.w3.org/2000/svg">
<path fill-rule="evenodd" clip-rule="evenodd" d="M4.54545 0C3.33992 0 2.18377 0.478895 1.33133 1.33133C0.478895 2.18377 0 3.33992 0 4.54545V20.4545C0 21.6601 0.478895 22.8162 1.33133 23.6687C2.18377 24.5211 3.33992 25 4.54545 25H20.4545C21.6601 25 22.8162 24.5211 23.6687 23.6687C24.5211 22.8162 25 21.6601 25 20.4545V4.54545C25 3.33992 24.5211 2.18377 23.6687 1.33133C22.8162 0.478895 21.6601 0 20.4545 0H4.54545ZM15.9091 6.25H18.1818V17.375C17.5398 17.5977 15.9614 18.0455 14.7864 18.0455C13.3182 18.0455 10.7159 17.2898 10.7159 13.7659C10.7159 10.7125 13.258 9.56136 15.9091 9.56136V6.25ZM15.9091 11.5045V16.05C14.9659 16.05 13.0682 15.808 13.0682 13.7773C13.0682 11.7466 14.9659 11.5045 15.9091 11.5045ZM9.09091 7.38636H6.81818V17.6136H9.09091V7.38636Z" fill="#B9CCF5"/>
</svg>
