<svg width="33" height="33" viewBox="0 0 33 33" fill="none" xmlns="http://www.w3.org/2000/svg">
<rect x="0.875" y="0.875" width="31.25" height="31.25" rx="3.125" stroke="#B9CCF5" stroke-width="1.75"/>
<circle cx="9.5" cy="8.25" r="1.85" fill="#B9CCF5" stroke="#0E0E0F" stroke-width="0.8"/>
<rect x="7.9" y="12.4" width="3.2" height="12.6" fill="#B9CCF5" stroke="#0E0E0F" stroke-width="0.8"/>
<path d="M18.25 13.3076C19.1705 12.5998 20.4352 12 22 12C25.5 12 26.5 15 26.5 16.5V25H22.5V17.0244C22.5 16.6839 22.3921 16.3449 22.1426 16.1133C20.7546 14.8258 19.0444 15.5267 18.25 16.2412V25H14.25V12H18.25V13.3076Z" fill="#B9CCF5"/>
<path d="M18.25 13.3076H17.7V14.4243L18.5853 13.7436L18.25 13.3076ZM26.5 25V25.55H27.05V25H26.5ZM22.5 25H21.95V25.55H22.5V25ZM22.5 17.0244L23.05 17.0244L23.05 17.0244L22.5 17.0244ZM22.1426 16.1133L22.5168 15.7102L22.5166 15.71L22.1426 16.1133ZM18.25 16.2412L17.8822 15.8323L17.7 15.9962V16.2412H18.25ZM18.25 25V25.55H18.8V25H18.25ZM14.25 25H13.7V25.55H14.25V25ZM14.25 12V11.45H13.7V12H14.25ZM18.25 12H18.8V11.45H18.25V12ZM18.25 13.3076L18.5853 13.7436C19.4327 13.092 20.5827 12.55 22 12.55V12V11.45C20.2878 11.45 18.9082 12.1077 17.9147 12.8716L18.25 13.3076ZM22 12V12.55C23.5663 12.55 24.5299 13.2095 25.119 14.0128C25.727 14.8418 25.95 15.8482 25.95 16.5H26.5H27.05C27.05 15.6518 26.773 14.4082 26.006 13.3622C25.2201 12.2905 23.9337 11.45 22 11.45V12ZM26.5 16.5H25.95V25H26.5H27.05V16.5H26.5ZM26.5 25V24.45H22.5V25V25.55H26.5V25ZM22.5 25H23.05V17.0244H22.5H21.95V25H22.5ZM22.5 17.0244L23.05 17.0244C23.05 16.5777 22.9086 16.0739 22.5168 15.7102L22.1426 16.1133L21.7684 16.5164C21.8756 16.6159 21.95 16.7902 21.95 17.0244L22.5 17.0244ZM22.1426 16.1133L22.5166 15.71C21.686 14.9396 20.7383 14.7574 19.8932 14.8824C19.07 15.0042 18.347 15.4143 17.8822 15.8323L18.25 16.2412L18.6178 16.6501C18.9475 16.3536 19.4767 16.056 20.0542 15.9706C20.6098 15.8884 21.2111 15.9995 21.7685 16.5165L22.1426 16.1133ZM18.25 16.2412H17.7V25H18.25H18.8V16.2412H18.25ZM18.25 25V24.45H14.25V25V25.55H18.25V25ZM14.25 25H14.8V12H14.25H13.7V25H14.25ZM14.25 12V12.55H18.25V12V11.45H14.25V12ZM18.25 12H17.7V13.3076H18.25H18.8V12H18.25Z" fill="#0E0E0F"/>
</svg>
