<svg width="33" height="33" viewBox="0 0 33 33" fill="none" xmlns="http://www.w3.org/2000/svg">
<path d="M4 0.349609H29C31.0158 0.349609 32.6504 1.98416 32.6504 4V29C32.6504 31.0158 31.0158 32.6504 29 32.6504H4C1.98416 32.6504 0.349609 31.0158 0.349609 29V4C0.349609 1.98416 1.98416 0.349609 4 0.349609Z" fill="#B9CCF5" fill-opacity="0.18" stroke="#B9CCF5" stroke-width="0.7"/>
<circle cx="9.5" cy="8.25" r="2.25" fill="#B9CCF5"/>
<rect x="7.5" y="12" width="4" height="13" fill="#B9CCF5"/>
<path d="M18.25 13.3076C19.1705 12.5998 20.4352 12 22 12C25.5 12 26.5 15 26.5 16.5V25H22.5V17.0244C22.5 16.6839 22.3921 16.3449 22.1426 16.1133C20.7546 14.8258 19.0444 15.5267 18.25 16.2412V25H14.25V12H18.25V13.3076Z" fill="#B9CCF5"/>
</svg>
