<svg width="312" height="232" viewBox="0 0 312 232" fill="none" xmlns="http://www.w3.org/2000/svg">
<path d="M144.579 0.5V205.609M144.579 0.5L57.602 25.3106C55.8839 25.8007 54.6992 27.3706 54.6992 29.1572V225.947C54.6992 228.604 57.2416 230.523 59.7965 229.794L144.579 205.609M144.579 0.5L221.619 26.1386M144.579 205.609L221.619 231.248M221.619 26.1386V231.248M221.619 26.1386L306.402 1.95401C308.957 1.22522 311.499 3.14377 311.499 5.80057V202.591C311.499 204.377 310.314 205.947 308.596 206.437L221.619 231.248" stroke="#F7F7FC" stroke-miterlimit="10" stroke-linecap="round" stroke-linejoin="round"/>
<path d="M32.1615 207.331C32.1615 219.844 17.1796 230.484 16.3652 231.053C16.3415 231.07 16.3201 231.07 16.2963 231.053C15.4819 230.484 0.5 219.844 0.5 207.331C0.5 203.132 2.16788 199.106 5.13672 196.137C8.10557 193.168 12.1322 191.5 16.3308 191.5C20.5293 191.5 24.556 193.168 27.5248 196.137C30.4937 199.106 32.1615 203.132 32.1615 207.331Z" stroke="#F7F7FC"/>
<circle cx="16.1907" cy="207.171" r="7.18682" stroke="#F7F7FC"/>
</svg>
