<svg width="197" height="233" viewBox="0 0 197 233" fill="none" xmlns="http://www.w3.org/2000/svg">
<path d="M54.1953 8.02832L105.364 18.553L112.416 74.6268L153.955 109.261L150.21 172.221L37.8557 160.153L54.1953 8.02832Z" fill="#101010"/>
<path d="M113.683 66.3394L159.482 71.2586L118.602 20.5403L113.683 66.3394ZM61.6542 1.78881L128.271 8.94404L172.867 64.2731L162.134 164.198C161.66 168.615 159.45 172.663 155.992 175.451C152.533 178.239 148.108 179.538 143.691 179.064L43.7661 168.331C39.3492 167.856 35.3016 165.647 32.5138 162.188C29.7259 158.729 28.4263 154.305 28.9007 149.888L43.2112 16.6542C43.6856 12.2372 45.8952 8.18964 49.354 5.40183C52.8127 2.61403 57.2372 1.31439 61.6542 1.78881ZM93.3693 93.1332C95.9784 100.994 99.6466 107.621 104.187 112.405L107.315 115.436C99.927 115.99 89.684 117.249 78.6703 120.193L77.7186 120.428L82.8123 112.215C87.3376 105.373 90.7922 99.0895 93.3693 93.1332ZM143.921 130.655C145.581 129.317 146.536 127.483 146.843 125.41C147.272 123.771 147.025 122.144 146.336 120.723C144.341 116.549 138.293 114.047 127.967 112.938L117.163 112.367L110.437 106.759C105.656 101.865 101.723 93.7778 99.403 84.0104L99.8613 82.8804C103.799 72.1005 107.82 58.9711 102.915 52.8849C102.313 52.1599 101.572 51.5618 100.737 51.125C99.9022 50.6883 98.9887 50.4218 98.0498 50.3408L96.0513 50.1262C92.9702 49.7952 89.8735 52.7476 88.7842 55.8314C84.5136 66.5756 85.6926 72.8511 87.6914 83.2579L87.6825 83.3411C84.8136 90.4454 81.2367 98.6528 76.0686 106.774L66.4646 120.904L58.6153 124.188C47.9519 129.36 42.4542 135.845 41.0642 140.16C40.5612 141.706 40.5756 143.14 40.9975 144.701L41.2026 145.145L44.9224 148.155L48.4879 149.465C55.2329 150.189 63.7435 143.101 75.9652 126.557L77.5267 126.135C86.3988 124.308 97.2632 123.538 111.756 123.494C119.877 128.662 129.747 131.66 136.075 132.339C139.739 132.733 142.336 132.085 143.921 130.655ZM141.142 124.376L141.793 125.373C141.62 126.196 141.362 126.253 140.927 126.375L140.594 126.339L138.994 126.336C135.164 125.924 129.422 123.707 123.629 120.389C124.468 119.637 124.801 119.673 125.634 119.762C137.292 121.015 140.399 123.454 141.142 124.376ZM63.4767 128.332C56.9998 137.66 51.4965 142.628 47.6151 143.475C48.3714 140.355 52.7089 135.262 59.2025 130.484L63.4767 128.332ZM94.8049 73.4929C93.6947 65.7928 94.2643 59.7051 96.0556 56.3598L96.7458 55.4231L97.9501 55.9736C99.1511 58.1242 99.0314 60.8068 97.7157 65.214L97.3228 66.5195L95.2571 73.2046L94.8049 73.4929Z" fill="#B9CCF5"/>
<path d="M8.73295 225.996C7.20194 225.996 5.88376 225.649 4.77841 224.956C3.67992 224.256 2.83546 223.291 2.24503 222.062C1.65459 220.833 1.35938 219.426 1.35938 217.84C1.35938 216.233 1.66146 214.815 2.26562 213.587C2.86979 212.351 3.72112 211.386 4.8196 210.693C5.91809 209.999 7.21224 209.653 8.70206 209.653C9.90353 209.653 10.9746 209.876 11.9151 210.322C12.8557 210.761 13.6143 211.379 14.1911 212.176C14.7746 212.972 15.1213 213.902 15.2312 214.967H12.2344C12.0696 214.225 11.692 213.587 11.1016 213.051C10.518 212.516 9.73532 212.248 8.75355 212.248C7.89536 212.248 7.14358 212.474 6.49822 212.927C5.85973 213.374 5.36198 214.012 5.00497 214.843C4.64796 215.667 4.46946 216.642 4.46946 217.768C4.46946 218.921 4.64453 219.917 4.99467 220.754C5.34482 221.592 5.83913 222.241 6.47763 222.701C7.12299 223.161 7.88163 223.391 8.75355 223.391C9.33712 223.391 9.86577 223.284 10.3395 223.071C10.8201 222.852 11.2217 222.539 11.5444 222.134C11.8739 221.729 12.1039 221.242 12.2344 220.672H15.2312C15.1213 221.695 14.7884 222.608 14.2322 223.411C13.6761 224.214 12.9312 224.846 11.9975 225.306C11.0707 225.766 9.98248 225.996 8.73295 225.996ZM21.0232 204.586V225.677H17.9441V204.586H21.0232ZM24.5857 225.677V209.859H27.6649V225.677H24.5857ZM26.1408 207.418C25.6053 207.418 25.1453 207.239 24.7608 206.882C24.3832 206.518 24.1944 206.086 24.1944 205.585C24.1944 205.077 24.3832 204.644 24.7608 204.287C25.1453 203.923 25.6053 203.741 26.1408 203.741C26.6763 203.741 27.1329 203.923 27.5105 204.287C27.8949 204.644 28.0872 205.077 28.0872 205.585C28.0872 206.086 27.8949 206.518 27.5105 206.882C27.1329 207.239 26.6763 207.418 26.1408 207.418ZM37.8904 225.996C36.3594 225.996 35.0412 225.649 33.9359 224.956C32.8374 224.256 31.9929 223.291 31.4025 222.062C30.8121 220.833 30.5168 219.426 30.5168 217.84C30.5168 216.233 30.8189 214.815 31.4231 213.587C32.0273 212.351 32.8786 211.386 33.9771 210.693C35.0755 209.999 36.3697 209.653 37.8595 209.653C39.061 209.653 40.132 209.876 41.0726 210.322C42.0132 210.761 42.7718 211.379 43.3485 212.176C43.9321 212.972 44.2788 213.902 44.3886 214.967H41.3918C41.2271 214.225 40.8495 213.587 40.259 213.051C39.6755 212.516 38.8928 212.248 37.911 212.248C37.0528 212.248 36.301 212.474 35.6557 212.927C35.0172 213.374 34.5194 214.012 34.1624 214.843C33.8054 215.667 33.6269 216.642 33.6269 217.768C33.6269 218.921 33.802 219.917 34.1521 220.754C34.5023 221.592 34.9966 222.241 35.6351 222.701C36.2804 223.161 37.0391 223.391 37.911 223.391C38.4946 223.391 39.0232 223.284 39.4969 223.071C39.9775 222.852 40.3792 222.539 40.7019 222.134C41.0314 221.729 41.2614 221.242 41.3918 220.672H44.3886C44.2788 221.695 43.9458 222.608 43.3897 223.411C42.8336 224.214 42.0887 224.846 41.155 225.306C40.2281 225.766 39.1399 225.996 37.8904 225.996ZM49.9336 220.311L49.913 216.552H50.4485L56.751 209.859H60.4378L53.2496 217.479H52.7656L49.9336 220.311ZM47.1015 225.677V204.586H50.1807V225.677H47.1015ZM57.0909 225.677L51.4268 218.159L53.5483 216.007L60.8703 225.677H57.0909ZM77.1428 209.859V212.33H68.5025V209.859H77.1428ZM70.8196 206.069H73.8988V221.032C73.8988 221.63 73.9881 222.079 74.1666 222.381C74.3451 222.677 74.5751 222.879 74.8566 222.989C75.1449 223.092 75.4573 223.143 75.7937 223.143C76.0409 223.143 76.2571 223.126 76.4425 223.092C76.6279 223.058 76.772 223.03 76.875 223.009L77.4311 225.553C77.2526 225.622 76.9986 225.69 76.6691 225.759C76.3395 225.835 75.9276 225.876 75.4333 225.883C74.6231 225.896 73.8679 225.752 73.1676 225.45C72.4674 225.148 71.9009 224.681 71.4684 224.05C71.0359 223.418 70.8196 222.625 70.8196 221.671V206.069ZM86.462 225.996C84.9791 225.996 83.6849 225.656 82.5796 224.976C81.4742 224.297 80.616 223.346 80.005 222.124C79.394 220.902 79.0884 219.474 79.0884 217.84C79.0884 216.199 79.394 214.764 80.005 213.535C80.616 212.306 81.4742 211.352 82.5796 210.672C83.6849 209.992 84.9791 209.653 86.462 209.653C87.945 209.653 89.2391 209.992 90.3445 210.672C91.4498 211.352 92.308 212.306 92.9191 213.535C93.5301 214.764 93.8356 216.199 93.8356 217.84C93.8356 219.474 93.5301 220.902 92.9191 222.124C92.308 223.346 91.4498 224.297 90.3445 224.976C89.2391 225.656 87.945 225.996 86.462 225.996ZM86.4723 223.411C87.4335 223.411 88.2299 223.157 88.8615 222.649C89.4932 222.141 89.96 221.465 90.2621 220.62C90.571 219.776 90.7255 218.846 90.7255 217.829C90.7255 216.82 90.571 215.893 90.2621 215.049C89.96 214.198 89.4932 213.514 88.8615 213C88.2299 212.485 87.4335 212.227 86.4723 212.227C85.5043 212.227 84.701 212.485 84.0625 213C83.4309 213.514 82.9606 214.198 82.6517 215.049C82.3496 215.893 82.1985 216.82 82.1985 217.829C82.1985 218.846 82.3496 219.776 82.6517 220.62C82.9606 221.465 83.4309 222.141 84.0625 222.649C84.701 223.157 85.5043 223.411 86.4723 223.411ZM108.391 226.027C107.388 226.027 106.482 225.842 105.672 225.471C104.862 225.093 104.22 224.547 103.746 223.833C103.279 223.119 103.046 222.244 103.046 221.207C103.046 220.315 103.218 219.58 103.561 219.003C103.904 218.427 104.368 217.97 104.951 217.634C105.535 217.297 106.187 217.043 106.908 216.872C107.629 216.7 108.363 216.57 109.112 216.48C110.059 216.371 110.828 216.281 111.418 216.213C112.009 216.137 112.438 216.017 112.706 215.852C112.974 215.687 113.107 215.42 113.107 215.049V214.977C113.107 214.077 112.853 213.381 112.345 212.886C111.844 212.392 111.096 212.145 110.1 212.145C109.064 212.145 108.247 212.375 107.649 212.835C107.059 213.288 106.65 213.793 106.424 214.349L103.53 213.69C103.873 212.728 104.374 211.953 105.034 211.362C105.7 210.765 106.465 210.332 107.33 210.065C108.195 209.79 109.105 209.653 110.059 209.653C110.691 209.653 111.36 209.728 112.067 209.879C112.781 210.023 113.447 210.291 114.065 210.682C114.69 211.074 115.201 211.633 115.6 212.361C115.998 213.082 116.197 214.019 116.197 215.172V225.677H113.19V223.514H113.066C112.867 223.912 112.568 224.304 112.17 224.688C111.772 225.073 111.261 225.392 110.636 225.646C110.011 225.9 109.263 226.027 108.391 226.027ZM109.06 223.555C109.912 223.555 110.639 223.387 111.243 223.051C111.854 222.714 112.318 222.275 112.634 221.733C112.956 221.183 113.118 220.596 113.118 219.972V217.932C113.008 218.042 112.795 218.145 112.479 218.241C112.17 218.331 111.817 218.41 111.418 218.478C111.02 218.54 110.632 218.598 110.255 218.653C109.877 218.701 109.561 218.743 109.307 218.777C108.71 218.852 108.164 218.979 107.67 219.158C107.182 219.336 106.791 219.594 106.496 219.93C106.208 220.26 106.063 220.699 106.063 221.248C106.063 222.011 106.345 222.587 106.908 222.979C107.471 223.363 108.188 223.555 109.06 223.555ZM126.381 225.996C124.85 225.996 123.532 225.649 122.427 224.956C121.328 224.256 120.484 223.291 119.893 222.062C119.303 220.833 119.008 219.426 119.008 217.84C119.008 216.233 119.31 214.815 119.914 213.587C120.518 212.351 121.369 211.386 122.468 210.693C123.566 209.999 124.86 209.653 126.35 209.653C127.552 209.653 128.623 209.876 129.563 210.322C130.504 210.761 131.263 211.379 131.839 212.176C132.423 212.972 132.77 213.902 132.879 214.967H129.883C129.718 214.225 129.34 213.587 128.75 213.051C128.166 212.516 127.384 212.248 126.402 212.248C125.544 212.248 124.792 212.474 124.146 212.927C123.508 213.374 123.01 214.012 122.653 214.843C122.296 215.667 122.118 216.642 122.118 217.768C122.118 218.921 122.293 219.917 122.643 220.754C122.993 221.592 123.487 222.241 124.126 222.701C124.771 223.161 125.53 223.391 126.402 223.391C126.985 223.391 127.514 223.284 127.988 223.071C128.468 222.852 128.87 222.539 129.193 222.134C129.522 221.729 129.752 221.242 129.883 220.672H132.879C132.77 221.695 132.437 222.608 131.88 223.411C131.324 224.214 130.579 224.846 129.646 225.306C128.719 225.766 127.631 225.996 126.381 225.996ZM142.255 225.996C140.724 225.996 139.406 225.649 138.301 224.956C137.202 224.256 136.358 223.291 135.767 222.062C135.177 220.833 134.882 219.426 134.882 217.84C134.882 216.233 135.184 214.815 135.788 213.587C136.392 212.351 137.243 211.386 138.342 210.693C139.44 209.999 140.735 209.653 142.224 209.653C143.426 209.653 144.497 209.876 145.437 210.322C146.378 210.761 147.137 211.379 147.713 212.176C148.297 212.972 148.644 213.902 148.754 214.967H145.757C145.592 214.225 145.214 213.587 144.624 213.051C144.04 212.516 143.258 212.248 142.276 212.248C141.418 212.248 140.666 212.474 140.021 212.927C139.382 213.374 138.884 214.012 138.527 214.843C138.17 215.667 137.992 216.642 137.992 217.768C137.992 218.921 138.167 219.917 138.517 220.754C138.867 221.592 139.361 222.241 140 222.701C140.645 223.161 141.404 223.391 142.276 223.391C142.859 223.391 143.388 223.284 143.862 223.071C144.342 222.852 144.744 222.539 145.067 222.134C145.396 221.729 145.626 221.242 145.757 220.672H148.754C148.644 221.695 148.311 222.608 147.755 223.411C147.198 224.214 146.454 224.846 145.52 225.306C144.593 225.766 143.505 225.996 142.255 225.996ZM158.284 225.996C156.725 225.996 155.383 225.663 154.257 224.997C153.138 224.324 152.273 223.38 151.662 222.165C151.058 220.943 150.756 219.512 150.756 217.871C150.756 216.25 151.058 214.822 151.662 213.587C152.273 212.351 153.124 211.386 154.216 210.693C155.315 209.999 156.598 209.653 158.068 209.653C158.96 209.653 159.825 209.8 160.663 210.095C161.5 210.391 162.252 210.854 162.918 211.486C163.584 212.117 164.109 212.938 164.494 213.947C164.878 214.949 165.07 216.168 165.07 217.603V218.695H152.496V216.388H162.053C162.053 215.578 161.888 214.86 161.559 214.235C161.229 213.604 160.766 213.106 160.168 212.742C159.578 212.378 158.885 212.196 158.088 212.196C157.223 212.196 156.468 212.409 155.823 212.835C155.184 213.254 154.69 213.803 154.34 214.483C153.996 215.155 153.825 215.887 153.825 216.676V218.478C153.825 219.536 154.01 220.435 154.381 221.176C154.758 221.918 155.284 222.484 155.956 222.876C156.629 223.26 157.415 223.452 158.315 223.452C158.898 223.452 159.43 223.37 159.911 223.205C160.392 223.034 160.807 222.78 161.157 222.443C161.507 222.107 161.775 221.691 161.96 221.197L164.875 221.722C164.641 222.58 164.223 223.332 163.618 223.978C163.021 224.616 162.269 225.114 161.363 225.471C160.464 225.821 159.437 225.996 158.284 225.996ZM179.76 213.72L176.969 214.215C176.853 213.858 176.667 213.518 176.413 213.195C176.166 212.873 175.83 212.608 175.404 212.402C174.978 212.196 174.446 212.093 173.808 212.093C172.936 212.093 172.208 212.289 171.625 212.68C171.041 213.065 170.749 213.563 170.749 214.174C170.749 214.702 170.945 215.128 171.336 215.451C171.728 215.773 172.359 216.038 173.231 216.244L175.744 216.82C177.199 217.157 178.284 217.675 178.998 218.375C179.712 219.076 180.069 219.985 180.069 221.104C180.069 222.052 179.795 222.896 179.245 223.638C178.703 224.372 177.944 224.949 176.969 225.368C176.001 225.787 174.879 225.996 173.602 225.996C171.831 225.996 170.385 225.618 169.266 224.863C168.147 224.101 167.461 223.02 167.207 221.619L170.183 221.166C170.368 221.942 170.749 222.529 171.326 222.927C171.903 223.318 172.654 223.514 173.581 223.514C174.591 223.514 175.397 223.305 176.001 222.886C176.606 222.46 176.908 221.942 176.908 221.331C176.908 220.837 176.722 220.421 176.352 220.085C175.988 219.748 175.428 219.494 174.673 219.323L171.995 218.736C170.519 218.399 169.428 217.864 168.72 217.129C168.02 216.395 167.67 215.464 167.67 214.338C167.67 213.405 167.931 212.588 168.453 211.887C168.975 211.187 169.695 210.641 170.615 210.25C171.535 209.852 172.589 209.653 173.777 209.653C175.486 209.653 176.832 210.023 177.814 210.765C178.796 211.499 179.444 212.485 179.76 213.72ZM194.728 213.72L191.937 214.215C191.821 213.858 191.635 213.518 191.381 213.195C191.134 212.873 190.798 212.608 190.372 212.402C189.946 212.196 189.414 212.093 188.776 212.093C187.904 212.093 187.176 212.289 186.592 212.68C186.009 213.065 185.717 213.563 185.717 214.174C185.717 214.702 185.913 215.128 186.304 215.451C186.695 215.773 187.327 216.038 188.199 216.244L190.712 216.82C192.167 217.157 193.252 217.675 193.966 218.375C194.68 219.076 195.037 219.985 195.037 221.104C195.037 222.052 194.762 222.896 194.213 223.638C193.671 224.372 192.912 224.949 191.937 225.368C190.969 225.787 189.847 225.996 188.57 225.996C186.798 225.996 185.353 225.618 184.234 224.863C183.115 224.101 182.429 223.02 182.174 221.619L185.151 221.166C185.336 221.942 185.717 222.529 186.294 222.927C186.871 223.318 187.622 223.514 188.549 223.514C189.558 223.514 190.365 223.305 190.969 222.886C191.573 222.46 191.875 221.942 191.875 221.331C191.875 220.837 191.69 220.421 191.319 220.085C190.955 219.748 190.396 219.494 189.641 219.323L186.963 218.736C185.487 218.399 184.395 217.864 183.688 217.129C182.988 216.395 182.638 215.464 182.638 214.338C182.638 213.405 182.899 212.588 183.421 211.887C183.942 211.187 184.663 210.641 185.583 210.25C186.503 209.852 187.557 209.653 188.745 209.653C190.454 209.653 191.8 210.023 192.782 210.765C193.763 211.499 194.412 212.485 194.728 213.72Z" fill="#B9CCF5"/>
</svg>
