<svg width="25" height="25" viewBox="0 0 25 25" fill="none" xmlns="http://www.w3.org/2000/svg">
<path d="M4.42695 0C1.9791 0 0 2.03005 0 4.54087V20.4591C0 22.97 1.9791 25 4.42695 25H20.573C23.0209 25 25 22.97 25 20.4591V4.54087C25 2.03005 23.0209 0 20.573 0H4.42695ZM8.9584 6.35697C9.8125 6.35697 10.5209 6.46354 11.1041 6.6879C11.6271 6.87015 12.1039 7.16953 12.5 7.5643C12.8356 7.90969 13.095 8.32497 13.2605 8.78205C13.4168 9.23077 13.4998 9.6901 13.4998 10.1709C13.4998 11.0897 13.2915 11.8482 12.8748 12.4465C12.4584 13.0447 11.8752 13.4936 11.198 13.75C10.4896 14.0172 9.7084 14.1132 8.8543 14.1132C8.6043 14.1132 8.4373 14.1132 8.3332 14.1026C8.2291 14.0919 8.0832 14.0919 7.88535 14.0919V17.5214C7.8957 17.5962 7.84375 17.6605 7.7709 17.6711H5.75C5.6668 17.6711 5.62539 17.628 5.62539 17.5319V6.53846C5.62539 6.46374 5.65664 6.42067 5.72949 6.42067C5.90664 6.42067 6.07324 6.42067 6.3127 6.41026C6.5627 6.39944 6.82305 6.39984 7.1043 6.38902C7.38555 6.37841 7.6877 6.37821 8.01055 6.36759C8.33359 6.35677 8.6459 6.35697 8.9584 6.35697ZM9.19082 8.46114C9.13763 8.4601 9.08443 8.46023 9.03125 8.46154C8.76055 8.46154 8.5209 8.46174 8.32285 8.47256C8.11465 8.46174 7.96895 8.47236 7.89609 8.48297V12.0727C8.0418 12.0835 8.17695 12.094 8.30195 12.094H8.8543C9.26055 12.094 9.6668 12.0298 10.0521 11.9016C10.3855 11.8055 10.6771 11.6024 10.9062 11.3353C11.125 11.0681 11.2293 10.7051 11.2293 10.235C11.2389 9.90121 11.1558 9.57151 10.9898 9.28426C10.8127 9.00661 10.5625 8.79267 10.2604 8.67528C9.92305 8.53506 9.56191 8.46855 9.19082 8.46114ZM17.9271 9.00661C18.3543 9.00661 18.7918 9.03826 19.2188 9.10236C19.5312 9.14503 19.8332 9.23097 20.1145 9.34856C20.1562 9.35918 20.1979 9.40164 20.2186 9.44431C20.2291 9.48698 20.2396 9.52985 20.2396 9.57252V11.3141C20.2398 11.3348 20.2351 11.3553 20.2261 11.3738C20.2171 11.3924 20.2039 11.4085 20.1877 11.4209C20.0939 11.4423 20.0418 11.4423 20.0002 11.4209C19.6877 11.25 19.3541 11.1326 18.9998 11.0579C18.6145 10.9724 18.2291 10.9187 17.8334 10.9187C17.625 10.9079 17.4061 10.9403 17.2082 10.9936C17.0727 11.0256 16.9582 11.1006 16.8854 11.2073C16.8334 11.2929 16.8021 11.3996 16.8021 11.4958C16.8021 11.5919 16.8439 11.6881 16.9064 11.7734C17.0002 11.891 17.125 11.9874 17.2604 12.0623C17.5019 12.1903 17.7487 12.3078 18 12.4143C18.5625 12.6066 19.1041 12.874 19.6041 13.1945C19.9479 13.4189 20.2291 13.7181 20.427 14.0813C20.5945 14.4221 20.677 14.8002 20.6668 15.1817C20.6753 15.6867 20.5334 16.1824 20.2602 16.6026C19.9697 17.029 19.5644 17.3594 19.0938 17.5533C18.5832 17.7776 17.9582 17.8952 17.2082 17.8952C16.7289 17.8952 16.2605 17.8526 15.7918 17.7564C15.4244 17.6913 15.0671 17.5763 14.7293 17.4145C14.6564 17.3718 14.6041 17.2969 14.6145 17.2113V15.3526C14.6145 15.3205 14.6248 15.2776 14.6561 15.2564C14.6873 15.235 14.7186 15.246 14.7498 15.2672C15.151 15.51 15.5869 15.6867 16.0416 15.7909C16.4375 15.8976 16.8543 15.9509 17.2711 15.9509C17.6668 15.9509 17.948 15.8974 18.1355 15.8013C18.3021 15.7266 18.4166 15.5449 18.4166 15.3526C18.4166 15.2031 18.3334 15.0639 18.1666 14.9249C18 14.7861 17.6563 14.626 17.1459 14.4231C16.6222 14.2339 16.1249 13.9753 15.6666 13.6538C15.3402 13.4153 15.0698 13.1051 14.875 12.7458C14.7088 12.4084 14.6265 12.034 14.6355 11.656C14.6355 11.1967 14.7604 10.7586 14.9895 10.3634C15.2498 9.9361 15.6355 9.59415 16.0836 9.38061C16.573 9.1242 17.1873 9.00661 17.9271 9.00661Z" fill="#B9CCF5"/>
</svg>
