<svg width="25" height="25" viewBox="0 0 25 25" fill="none" xmlns="http://www.w3.org/2000/svg">
<path fill-rule="evenodd" clip-rule="evenodd" d="M4.54545 0C3.33992 0 2.18377 0.478895 1.33133 1.33133C0.478895 2.18377 0 3.33992 0 4.54545V20.4545C0 21.6601 0.478895 22.8162 1.33133 23.6687C2.18377 24.5211 3.33992 25 4.54545 25H20.4545C21.6601 25 22.8162 24.5211 23.6687 23.6687C24.5211 22.8162 25 21.6601 25 20.4545V4.54545C25 3.33992 24.5211 2.18377 23.6687 1.33133C22.8162 0.478895 21.6601 0 20.4545 0H4.54545ZM6.81818 6.25H5.68182V17.6136H7.95455V14.2045H9.65909C10.1814 14.2045 10.6986 14.1017 11.1811 13.9018C11.6637 13.7019 12.1021 13.409 12.4714 13.0396C12.8408 12.6703 13.1337 12.2319 13.3336 11.7493C13.5335 11.2668 13.6364 10.7496 13.6364 10.2273C13.6364 9.70497 13.5335 9.18778 13.3336 8.70524C13.1337 8.22269 12.8408 7.78424 12.4714 7.41492C12.1021 7.04559 11.6637 6.75263 11.1811 6.55275C10.6986 6.35288 10.1814 6.25 9.65909 6.25H6.81818ZM9.65909 11.9318H7.95455V8.52273H9.65909C10.1112 8.52273 10.5447 8.70231 10.8644 9.02198C11.1841 9.34164 11.3636 9.7752 11.3636 10.2273C11.3636 10.6793 11.1841 11.1129 10.8644 11.4326C10.5447 11.7522 10.1112 11.9318 9.65909 11.9318ZM15.3409 9.09091V17.6136H17.6136V12.7841C17.8243 12.4058 18.1238 12.0845 18.4864 11.8477C18.9148 11.5727 19.533 11.3636 20.4545 11.3636V9.09091C19.3455 9.09091 18.4011 9.31364 17.6136 9.72727V9.09091H15.3409Z" fill="#B9CCF5"/>
</svg>
