<?xml version="1.0" encoding="UTF-8"?><svg id="a" xmlns="http://www.w3.org/2000/svg" viewBox="0 0 715.4 107.1"><defs><style>.b{fill:#f8f8f8;}</style></defs><path class="b" d="M60.86,49.65c.05,1.78-2.64,3.87-4.26,3.94-1.84.08-5.15-1.79-5.11-3.64l.33-15.58-13.41,8.72c-1.72,1.12-5.5.2-6.43-1.49-1.34-2.44-.38-5.68,2.02-6.98l13.74-7.42-13.74-7.49c-2.09-1.14-3.09-3.87-2.4-6.18.51-1.72,4.41-3.63,6.13-2.57l14.18,8.76-.49-14.11c-.1-2.98,1.62-5.43,4.24-5.61,3.54-.24,5.38,2.11,5.24,5.67l-.56,14.13,13.58-8.67c1.6-1.02,5.44.16,6.33,1.79,1.18,2.17.35,5.54-1.96,6.75l-14.27,7.49,14.36,7.51c1.92,1,2.89,4.23,2.2,6.11-.83,2.25-4.61,3.67-6.69,2.33l-13.41-8.67.39,15.2Z"/><path class="b" d="M92.48,101.35c.13,3.81-1.6,5.81-4.84,5.74-2.49-.06-4.7-2.24-4.6-5.14l.5-13.98-13.68,8.73c-2.13,1.36-5.99-.18-6.72-2.54s.56-4.98,2.88-6.23l13.31-7.15-15.03-8.3c-1.29-.71-1.52-4.57-.85-5.89.76-1.5,4.6-2.81,6.13-1.88l13.93,8.49-.48-14.72c-.07-2.1,1.9-4.53,3.65-4.83,2.47-.42,5.8,1.28,5.74,3.89l-.38,15.8,13.62-8.67c1.42-.91,5.45.37,6.2,1.89,1.01,2.03.22,5.51-1.95,6.67l-14.02,7.52,14.11,7.57c1.64.88,2.68,4.07,2.23,5.8-.61,2.31-4.6,3.9-6.62,2.61l-13.6-8.72.44,13.33Z"/><path class="b" d="M29.51,101.35c.13,3.88-1.56,5.86-4.87,5.75-2.52-.08-4.65-2.26-4.56-5.2l.43-13.93-12.94,8.37c-1.73,1.12-5.26.84-6.68-.8s-.98-5.82,1.09-6.94l14.49-7.88-13.51-7.16c-2.18-1.15-3.49-4.09-2.76-6.14,1.1-3.11,4.86-3.74,7.47-2.14l12.82,7.9-.39-14.68c-.06-2.16,1.81-4.5,3.61-4.83,2.51-.47,5.85,1.18,5.78,3.87l-.41,15.8,13.6-8.63c1.46-.93,5.46.33,6.22,1.86,1.06,2.13.24,5.54-1.97,6.72l-13.92,7.43,14,7.59c1.79.97,2.76,3.96,2.26,5.95-.56,2.21-4.59,3.77-6.62,2.48l-13.55-8.67.43,13.28Z"/><path class="b" d="M243.77,83.5c-6.1,23.41-43.62,24.15-62.11,11.31l-1.38-22.17c2.53-.09,5.38-.06,7.16.19,2.04,5.67,4.1,10.7,7.5,15.02,9.37,11.89,29.53,9.44,33.7-.29,2.27-5.3,2.45-11.46-1.71-15.66-11.91-12-45.51-9.61-45.71-37.16-.08-11.77,6.71-21.66,18.22-25.11,13.62-4.08,28.4-1.43,40.42,6.22l.06,18.91c-.38,1.17-4.09,1.91-5.19,1.29s-2.17-2.69-2.65-4.31c-3.91-13.03-16.62-20.29-29.24-15.08-5.31,2.19-7.66,7.39-7.59,12.6.24,17.61,28.4,14.32,43.16,29.28,6.43,6.51,7.72,15.92,5.36,24.97Z"/><path class="b" d="M454.74,103.05c-10.28.45-17.46-5.79-18.62-15.32-.99-8.16,2.69-16.22,10.79-19.23l27.95-10.39c.65-5.37,1.02-11.6-1.62-16.69-3.02-5.82-12.87-6.75-17.08-1.76-3.14,3.73-1.53,8.87-1.35,13.63-3.85.77-8.53,1.41-12.42,1.23-5.49-7.47-1.71-17.22,6.49-21.18s17.81-4.56,27.09-2.5c8.7,1.93,15.05,9.64,15.04,18.98l-.06,37.01c0,1.33,1.05,4.11,2.03,4.87,1.14.89,4.2.98,6.09,1.07l3.2.15c.81.04.75,3.05.08,3.87-3.45,4.17-12.4,8.24-18.89,5.51-4.3-1.81-6.29-5.88-7.95-10.73-5.58,5.87-11.76,11.07-20.78,11.47ZM474.53,86.47c1.72-7.63.44-14.44.61-21.9l-18.06,7.15c-3.45,1.36-5.06,6.37-4.95,9.45.13,3.71.81,7.67,4.97,9.88,4.39,2.33,16.11,1.29,17.43-4.57Z"/><path class="b" d="M667.8,103.03c-10.46.6-17.82-5.58-19-15.28-1.05-8.64,3.27-16.61,11.74-19.73l27.11-9.98c.84-7.63,1.03-20.63-9.04-21.36-4-.29-8.62.1-10.51,4.04-1.71,3.56-1.02,7.59-.61,12.55-3.49.68-8.25,1.35-12.21,1.47-5.65-7.17-2.18-17.21,5.96-21.21,9.21-4.53,20.18-5.16,30.12-1.78,7.54,2.57,12.41,10.36,12.39,18.43l-.13,37.06c0,1.25,1.22,3.86,2.19,4.63s3.93,1.01,5.22.89l3.55-.33c.92-.08,1.08,3.64.43,4.39-3.92,4.55-12.13,8.02-18.5,5.61-4.39-1.66-6.44-5.63-8.29-10.69-5.67,5.67-11.69,10.8-20.42,11.3ZM688.01,87.45l-.25-22.88-17.89,7.08c-3.46,1.37-5.13,6.44-5.08,9.54.06,3.57,1.37,8.2,4.91,9.81,6.26,2.87,13.1.41,18.31-3.55Z"/><path class="b" d="M281.61,103.16c-13.72-.54-24.78-8.42-29.25-20.78s-3.26-26.37,3.79-37.55c5.87-9.32,15.81-14.38,25.66-15.01,11.12-.71,21.57,2.99,28.51,11.81,7.71,9.8,9.11,22.49,6.34,34.51-3.76,16.33-17.51,27.73-35.05,27.03ZM296.2,45.89c-3.06-5.69-8.56-8.89-14.31-8.64-17.76.8-19.3,33.46-10.24,49.95,3.13,5.7,8.86,8.77,14.82,8.23,17.22-1.56,18.37-33.46,9.72-49.55Z"/><path class="b" d="M604.38,46.58c-5.76,11.08-4.96,25.12,1.46,35.37,4.02,6.42,11.04,8.57,17.71,8.56,13.21-.01,16.73-10.58,19.81-10.18,4.43.58-3.08,22.75-25.19,22.91-13.27.1-24.67-6.61-29.37-19.3-4.22-11.38-3.56-23.81,1.73-34.93,8.23-17.32,28.79-24.35,45.92-15.72,8.7,4.38,10.19,16.53,5.24,20.64-1.55,1.29-5.12,1.87-7.39,1.63l-3.18-.35c-1.71-.19,1.62-12.6-5.85-16.56s-16.69-.18-20.9,7.92Z"/><path class="b" d="M340.35,46.56c-5.78,11.1-5.02,25.16,1.45,35.39,4.06,6.42,11.03,8.59,17.74,8.55,13.38-.07,16.66-10.7,19.81-10.15,4.46.78-3.43,22.79-25.18,22.91-13.87.08-25.58-7.24-29.96-20.75-3.71-11.44-2.74-23.89,2.91-34.71,8.62-16.54,28.71-22.86,45.32-14.52,5.77,2.9,8.6,9.29,7.82,15.31-.72,5.55-4.95,7.6-10.18,6.98l-3.07-.36c-1.76-.21,1.76-12.49-5.76-16.53-7.42-3.99-16.71-.18-20.9,7.88Z"/><path class="b" d="M530.19,92.55c5.07.99,10.25-.23,15.1-1.66,1.16-.34,2.28,3.45,1.29,4.45-6.07,6.1-15.39,8.63-24.47,7.53-7.88-.95-13.1-7.05-13.12-15.18l-.12-48.48-8.63-.51c-4.95-6.39,8.36-6.63,17.8-20.94,1.22-1.85,6.37-3.54,6.45-1.5l.53,14.64,19.16.13v7.86s-19.36.14-19.36.14l.02,46.76c0,2.75,2.72,6.23,5.36,6.74Z"/><path class="b" d="M409.82,87.67c-1.22,9.59,12.17,6.85,12.06,8.91l-.28,5.26h-36.61c-.72-1.3-.75-5.01.22-5.92,2.97-.66,8.56-1.65,8.57-5.44l.14-45.22-7.45-4.64c-.97-.6-1.89-4.08-.77-4.46l18.84-6.3c1.13-.38,4.01-.23,5.22-.13l.4,20.31c5.5-9.37,10.29-24.97,24.77-18.99l-.2,14.82c-8.33-.06-21.01,1.09-23.82,10.24-2.99,9.72.2,21.41-1.09,31.54Z"/><path class="b" d="M549.74,101.89c-1.21,0-2.4-2.82-2.23-3.71,1.01-5.38,9.84.04,9.82-10.43l-.1-42.68-7.83-5.05c-.5-.32-1.43-2.27-1.08-2.72.47-.59,1.76-1.64,2.5-1.85l22.33-6.4.28,61.66c.03,6.82,13.46,1.6,8.64,11.09l-32.32.09Z"/><circle class="b" cx="564.74" cy="11.86" r="10.01"/></svg>