<?xml version="1.0" encoding="UTF-8"?><svg id="a" xmlns="http://www.w3.org/2000/svg" viewBox="0 0 456 134"><defs><style>.b{fill:#f7f7fc;}</style></defs><path class="b" d="M330.79,50.97c.8-2.24,5.15-1.48,6.62-.63l-10.34,31.78c-.53,1.63-2.18,1.82-3.3,1.87-4.34.19-5.86-14.77-9.73-20.47-4.56,6.49-4.64,21.7-11.09,20.31-1.16-.25-1.81-1.56-2.33-3.16l-9.81-30.24c1.13-.7,5.56-1.68,6.17,0l7.11,19.98,7.65-20.14c.42-.89,4.13-.94,4.56-.04,3.15,6.63,4.8,13.63,7.52,20.25l6.97-19.51Z"/><path class="b" d="M6.9,83.04c-2.15,1.57-4.58,1.09-6.89.27V15.81c2.16-.62,4.26-.6,6.77-.04l.11,67.27Z"/><path class="b" d="M130.74,83.01c-.41,1.64-4.64.93-6.62.58l-.1-67.33c2.12-1.26,4.45-1.07,6.83-.45l-.11,67.19Z"/><path class="b" d="M99.63,117.78c-2.48,1-4.36.75-6.67.38l-.09-68.04c2.42-.63,4.17-.75,6.73-.12l.03,67.78Z"/><path class="b" d="M37.59,116.98c0,2.36-5.58,2-6.53.56l-.1-67.05c1.84-1.38,4.41-1.18,6.79-.26l-.17,66.76Z"/><path class="b" d="M68.8,82.86c-1.92,1.65-4.9,1.57-6.78.24V16.1c2.07-1.09,4.56-.98,6.65-.08l.13,66.85Z"/><path class="b" d="M372.07,68.24c-4.69.11-7.19,0-9.73,0v10.23c4.43-.08,9.12,0,12.97,0v5.24c-7.59,0-12.46-.05-20.15-.05v-33.77c7.24,0,13.49-.03,20.22-.03,0,1.62-.08,3.85-.08,5.32h-12.97c0,1.19,0,6.14,0,7.26,3.11,0,8.33,0,9.73,0,0,1.65,0,3.4,0,5.81Z"/><path class="b" d="M415.91,78.45c1.48.07.77,3.93.45,5.21l-20.36.14-.22-33.25c1.14-1.46,4.36-.98,6.43-.4l.2,28.3h13.5Z"/><path class="b" d="M455.98,78.48c0,1.44-.02,2.79-.02,5.27-6.83.61-14.02.25-21.09-.03l.18-33.21c.44-1.44,4.69-.92,6.13-.27l.44,28.25c4.84,0,8.93,0,14.35,0Z"/><path class="b" d="M234.5,84.32c-.61,0-2.21,0-3.01,0,0-5.04-.12-12.26-.12-17.68-6.85,0-14.07.21-20.67.21v18.2c-.62,0-2.17,0-3,0v-36.39c1.25,0,2.02,0,3,0v14.9c6.94,0,13.93.02,20.77.02,0-4.02,0-10.78,0-14.99.52,0,2.24,0,3.03,0v35.74Z"/><path class="b" d="M274.68,83.56v-3.21h-16.14c0-6.09-.05-9.83-.05-14.34h12.16c0-1.32,0-1.95,0-3.07-2.9,0-9.46,0-12.1,0,0-1.88,0-6.75,0-10.03l16.14-.09c0-1.46-.01-1.82-.01-3.32h-19.27s-.23,34.06-.23,34.06h19.5Z"/><path class="b" d="M175.17,84.22c.51,0,2.69-.02,3.18-.02,0-11.11.27-20.05.27-30.36.03-.41.07-1.34,1.07-1.34h8.81v-3.32c-7.1,0-15.74,0-22.95,0v3.32h8.8c.99,0,1.04.92,1.07,1.33l-.24,30.39Z"/></svg>