<svg width="25" height="25" viewBox="0 0 25 25" fill="none" xmlns="http://www.w3.org/2000/svg">
<path fill-rule="evenodd" clip-rule="evenodd" d="M17.728 24.8932C17.9269 24.9711 18.1397 25.0071 18.353 24.9988C18.5664 24.9906 18.7758 24.9383 18.9682 24.8453L24.1152 22.3556C24.3803 22.2274 24.604 22.0265 24.7605 21.7761C24.917 21.5257 25 21.236 25 20.9403V4.05949C25.0001 3.76374 24.9171 3.47399 24.7605 3.22357C24.604 2.97315 24.3803 2.77224 24.1152 2.64396L18.9682 0.154728C18.6773 0.0140604 18.3502 -0.032254 18.032 0.0221946C17.7138 0.0766432 17.4204 0.229162 17.1922 0.458643L7.33872 9.49481L3.04694 6.21987C2.8533 6.07218 2.61436 5.99726 2.37154 6.00809C2.12871 6.01892 1.89731 6.11482 1.71745 6.27916L0.340889 7.53782C0.233614 7.6359 0.147885 7.7554 0.0891858 7.88869C0.0304868 8.02198 0.000110603 8.16611 3.01475e-07 8.31188C-0.00011 8.45764 0.030048 8.60182 0.0885452 8.7352C0.147042 8.86858 0.232591 8.98821 0.339718 9.08645L4.06178 12.4998L0.339913 15.9133C0.232844 16.0116 0.147347 16.1312 0.0888864 16.2646C0.0304256 16.3979 0.00028716 16.5421 0.00039745 16.6878C0.00050774 16.8336 0.0308644 16.9777 0.089527 17.1109C0.14819 17.2442 0.233868 17.3637 0.341085 17.4618L1.71764 18.7204C1.89748 18.8848 2.12887 18.9808 2.3717 18.9916C2.61452 19.0025 2.85348 18.9276 3.04713 18.7799L7.33892 15.5052L17.1924 24.5412C17.3449 24.6944 17.5271 24.8143 17.728 24.8932ZM18.7537 6.79511L11.2774 12.4998L18.7539 18.2047L18.7537 6.79511Z" fill="#B9CCF5"/>
</svg>
