<svg width="25" height="25" viewBox="0 0 25 25" fill="none" xmlns="http://www.w3.org/2000/svg">
<path d="M12.5 0C5.6125 0 0 5.6125 0 12.5C0 19.3875 5.6125 25 12.5 25C19.3875 25 25 19.3875 25 12.5C25 5.6125 19.3875 0 12.5 0ZM1.2625 12.5C1.2625 10.875 1.6125 9.325 2.2375 7.925L7.6 22.6125C3.85 20.7875 1.2625 16.95 1.2625 12.5ZM12.5 23.7375C11.4 23.7375 10.3375 23.575 9.325 23.275L12.7 13.475L16.15 22.9375C16.175 22.9875 16.2 23.05 16.225 23.0875C15.0625 23.5125 13.8125 23.7375 12.5 23.7375ZM14.05 7.225C14.725 7.1875 15.3375 7.1125 15.3375 7.1125C15.9375 7.0375 15.875 6.15 15.2625 6.1875C15.2625 6.1875 13.4375 6.325 12.2625 6.325C11.1625 6.325 9.3 6.1875 9.3 6.1875C8.7 6.1625 8.625 7.0875 9.2375 7.125C9.2375 7.125 9.8125 7.2 10.4125 7.2375L12.1625 12.0375L9.7 19.4125L5.6125 7.225C6.2875 7.2 6.9 7.125 6.9 7.125C7.5 7.05 7.4375 6.1625 6.825 6.2C6.825 6.2 5 6.3375 3.825 6.3375C3.6125 6.3375 3.3625 6.3375 3.1 6.325C5.125 3.275 8.575 1.2625 12.5 1.2625C15.425 1.2625 18.0875 2.375 20.0875 4.2125C20.0375 4.2125 19.9875 4.2 19.9375 4.2C18.8375 4.2 18.05 5.1625 18.05 6.2C18.05 7.125 18.5875 7.9125 19.15 8.8375C19.575 9.5875 20.075 10.55 20.075 11.9375C20.075 12.9 19.7 14.0125 19.225 15.575L18.1 19.325L14.05 7.225ZM22.3625 7.1125C23.7659 9.68218 24.1109 12.6981 23.3241 15.5184C22.5373 18.3386 20.6809 20.7404 18.15 22.2125L21.5875 12.2875C22.225 10.6875 22.4375 9.4 22.4375 8.2625C22.4375 7.85 22.4125 7.4625 22.3625 7.1125Z" fill="#B9CCF5"/>
</svg>
