<svg width="155" height="167" viewBox="0 0 155 167" fill="none" xmlns="http://www.w3.org/2000/svg">
<path d="M106.462 67.5181L96.5605 72.9195V60.3165L51.5472 49.5137V43.2121L27.241 37.8107V6.30267L32.6423 7.2029V1.80151L62.3499 7.2029V13.5045L106.462 24.3073V67.5181Z" fill="#F0F4FB"/>
<path d="M128.967 39.6109L107.361 36.01V44.1121L120.865 46.8128V58.5158L128.967 54.0146V39.6109Z" fill="#00B6DE"/>
<path d="M89.3568 77.4205L152.373 41.4113V42.3115V98.7107C152.373 100.017 151.666 101.221 150.525 101.856L91.1573 134.932L89.3568 135.71L87.5564 135.471L4.7367 114.126C3.14608 113.716 2.03448 112.282 2.03448 110.639V56.7152L7.43774 57.9964L7.4361 50.5516C7.43598 50.0037 7.92123 49.5827 8.46364 49.6602L12.7099 50.2668C13.2523 50.3443 13.7375 49.9235 13.7375 49.3756V45.1967C13.7375 44.6331 14.2496 44.208 14.8036 44.3119L41.8105 49.3757C42.2363 49.4555 42.5449 49.8273 42.5449 50.2605V55.9947C42.5449 56.4159 42.8369 56.7808 43.2479 56.8731L86.6562 66.6178V76.7802L89.3568 77.4205Z" fill="#00B6DE"/>
<path d="M89.3568 77.4205V135.71M89.3568 77.4205L152.373 41.4113M89.3568 77.4205L86.6561 76.7802M89.3568 135.71L87.5564 135.471L4.7367 114.126C3.14608 113.716 2.03448 112.282 2.03448 110.639V56.7152M89.3568 135.71L91.1573 134.932L150.525 101.856C151.666 101.221 152.373 100.017 152.373 98.7107V42.3115V41.4113M152.373 41.4113L151.473 41.2701L106.461 34.2095M2.03448 56.7152L7.43587 53.1143M2.03448 56.7152L7.43774 57.9964M7.43774 57.9964L7.4361 50.5516C7.43598 50.0037 7.92123 49.5827 8.46364 49.6602L12.7099 50.2668C13.2523 50.3443 13.7375 49.9235 13.7375 49.3756V45.1967C13.7375 44.6331 14.2496 44.208 14.8036 44.3119L41.8105 49.3757C42.2363 49.4555 42.5449 49.8273 42.5449 50.2605V55.9947C42.5449 56.4159 42.8369 56.7808 43.2479 56.8731L86.6561 66.6178V76.7802M7.43774 57.9964L86.6561 76.7802" stroke="#273883" stroke-width="4.06902"/>
<path d="M119.965 47.7132L107.361 45.3726V65.7179L119.965 58.516V47.7132Z" fill="#00B6DE"/>
<path d="M148.772 42.3119L119.064 37.8108L130.767 40.5115V52.2145L148.772 42.3119Z" fill="#273883" stroke="#273883" stroke-width="1.80046"/>
<path d="M22.7398 45.9129V38.8955C22.7398 38.3318 23.2519 37.9068 23.8059 38.0107L51.5472 43.2122L51.5454 49.514L94.9723 60.1485C95.3751 60.2472 95.6584 60.6083 95.6584 61.023L95.6567 73.8202L89.3551 77.4212L86.6544 76.5209V68.225C86.6544 67.8103 86.3711 67.4492 85.9683 67.3506L43.2308 56.8836C42.8281 56.785 42.5448 56.4241 42.5447 56.0095L42.5433 50.2651C42.5432 49.8301 42.2321 49.4574 41.8041 49.3796L22.7398 45.9129Z" fill="#00B6DE" stroke="#273883" stroke-width="2.70069"/>
<path d="M30.8418 84.6228L48.8464 89.124" stroke="#273883" stroke-width="10.8028" stroke-linecap="round"/>
<path d="M95.6585 73.8199V61.0229C95.6585 60.6082 95.3752 60.2471 94.9724 60.1485L52.2333 49.6817C51.8305 49.5831 51.5472 49.2221 51.5472 48.8073V43.9342C51.5472 43.5123 51.2541 43.147 50.8422 43.0555L27.241 37.8107V7.42491C27.241 6.84899 27.7743 6.42118 28.3365 6.54611L34.9048 8.00575C35.1297 8.05572 35.343 7.8846 35.343 7.65423V2.93598C35.343 2.35616 35.8832 1.92754 36.4478 2.0593L61.6543 7.9408C62.0617 8.03587 62.35 8.39911 62.35 8.81748V13.222C62.35 13.3878 62.4633 13.5323 62.6244 13.5717L105.775 24.1392C106.178 24.2379 106.461 24.5989 106.461 25.0136V36.0103M106.461 67.5183V44.1123M106.461 44.1123L120.131 46.6753C120.556 46.7552 120.865 47.1269 120.865 47.5602V60.3165M106.461 44.1123V36.0103M106.461 36.0103L129.137 40.371C129.561 40.4525 129.867 40.8234 129.867 41.255V54.9151" stroke="#273883" stroke-width="4.06902"/>
<path d="M60.6591 34.327C60.6591 28.816 64.26 27.4382 66.0605 27.4382C67.861 27.4382 71.4619 28.816 71.4619 34.327C71.4619 39.8379 69.0613 41.8419 66.0605 41.8419C63.6599 41.8419 60.6591 39.8379 60.6591 34.327Z" stroke="#273883" stroke-width="2.39757"/>
<path d="M80.3742 28.1584L74.5227 39.1773H83.525M80.8243 34.6401V44.3626" stroke="#273883" stroke-width="2.39757"/>
<path d="M54.5376 23.8376L47.5158 34.8565H58.3186M55.0777 30.3193V40.0418" stroke="#273883" stroke-width="2.39757"/>
<path d="M4.73517 56.7154V55.8152H7.43586V57.6156L4.73517 56.7154Z" stroke="#273883" stroke-width="1.80046"/>
<path d="M137.599 33.7756L108.262 27.9082V36.0103L127.717 40.0635C128.97 40.3244 129.867 41.4282 129.867 42.7075V54.0149L139.77 47.7133V36.4239C139.77 35.1365 138.861 34.0281 137.599 33.7756Z" fill="#00B6DE" stroke="#273883" stroke-width="4.06902"/>
<path d="M59.8297 145.267L57.3087 145.246L56.4224 144.377C59.6897 140.652 61.5082 135.876 61.5462 130.921C61.5807 126.818 60.398 122.798 58.1475 119.368C55.8971 115.937 52.68 113.252 48.9031 111.65C45.1262 110.048 40.9591 109.602 36.9288 110.369C32.8984 111.135 29.1859 113.079 26.2606 115.956C23.3354 118.832 21.3288 122.511 20.4945 126.528C19.6603 130.545 20.0359 134.719 21.5739 138.522C23.1119 142.326 25.7432 145.588 29.1351 147.896C32.5269 150.203 36.5269 151.454 40.6293 151.488C45.767 151.532 50.5057 149.689 54.1699 146.592L55.0239 147.493L55.0027 150.014L70.8241 166.072L75.6189 161.357L59.8297 145.267ZM40.6831 145.106C32.7372 145.039 26.3772 138.571 26.4441 130.625C26.511 122.679 32.9791 116.319 40.925 116.386C48.8708 116.453 55.2309 122.921 55.164 130.867C55.097 138.813 48.6289 145.173 40.6831 145.106Z" fill="#273883"/>
</svg>
