<svg width="66" height="87" viewBox="0 0 66 87" fill="none" xmlns="http://www.w3.org/2000/svg">
<path d="M22.2466 2.25H49.8159C51.3321 2.25 52.759 2.9683 53.6616 4.18652L62.6899 16.373C63.3005 17.1973 63.6304 18.1959 63.6304 19.2217V60.832C63.6304 63.4752 61.4874 65.6182 58.8442 65.6182H22.1841C19.5388 65.6181 17.3949 63.4715 17.3979 60.8262L17.4604 7.03027C17.4635 4.3893 19.6056 2.25 22.2466 2.25Z" fill="#00B6DE" stroke="#273883" stroke-width="4.5"/>
<path d="M49.2133 17.241V4.91384C49.2133 3.88709 50.089 3.0786 51.1125 3.16047L51.793 3.21491C52.2745 3.25343 52.719 3.48828 53.0222 3.86435L62.7242 15.8998C62.9573 16.189 63.0929 16.5445 63.1116 16.9155L63.1235 17.1527C63.1739 18.1576 62.3728 18.9999 61.3667 18.9999H50.9722C50.0008 18.9999 49.2133 18.2124 49.2133 17.241Z" fill="#273883" stroke="#273883" stroke-width="1.75897"/>
<circle cx="18.0451" cy="68.0716" r="12.1136" transform="rotate(-8.55596 18.0451 68.0716)" fill="#FEFEFF"/>
<circle cx="18.0451" cy="68.0716" r="12.1136" transform="rotate(-8.55596 18.0451 68.0716)" stroke="#FEFEFF"/>
<path d="M18.0451 54.129C15.2875 54.129 12.5919 54.9468 10.299 56.4788C8.00616 58.0108 6.21909 60.1884 5.16381 62.7361C4.10852 65.2837 3.83241 68.0871 4.37039 70.7917C4.90837 73.4964 6.23628 75.9807 8.18619 77.9306C10.1361 79.8805 12.6204 81.2084 15.3251 81.7464C18.0297 82.2844 20.8331 82.0083 23.3808 80.953C25.9284 79.8977 28.106 78.1107 29.638 75.8178C31.1701 73.5249 31.9878 70.8293 31.9878 68.0717C31.9878 64.3739 30.5188 60.8275 27.9041 58.2127C25.2893 55.598 21.743 54.129 18.0451 54.129ZM18.0451 60.1044C18.3406 60.1044 18.6294 60.1921 18.8751 60.3562C19.1207 60.5204 19.3122 60.7537 19.4253 61.0266C19.5383 61.2996 19.5679 61.6 19.5103 61.8897C19.4526 62.1795 19.3104 62.4457 19.1014 62.6546C18.8925 62.8635 18.6263 63.0058 18.3366 63.0635C18.0468 63.1211 17.7464 63.0915 17.4735 62.9784C17.2005 62.8654 16.9672 62.6739 16.803 62.4282C16.6389 62.1826 16.5513 61.8938 16.5513 61.5983C16.5513 61.2021 16.7087 60.8221 16.9888 60.542C17.269 60.2618 17.6489 60.1044 18.0451 60.1044ZM22.0287 75.043C22.0287 75.6618 21.5271 76.1634 20.9084 76.1634H15.1819C14.5631 76.1634 14.0615 75.6618 14.0615 75.043C14.0615 74.4242 14.5631 73.9226 15.1819 73.9226H15.4931C16.2838 73.9226 16.9247 73.2817 16.9247 72.491V69.1298C16.9247 68.6142 16.5067 68.1962 15.9911 68.1962C15.4754 68.1962 15.0574 67.7781 15.0574 67.2625V67.0758C15.0574 66.457 15.559 65.9554 16.1778 65.9554H17.5926C18.4613 65.9554 19.1655 66.6596 19.1655 67.5283V72.491C19.1655 73.2817 19.8065 73.9226 20.5971 73.9226H20.9084C21.5271 73.9226 22.0287 74.4242 22.0287 75.043Z" fill="#273883"/>
<path d="M30.3409 29.85H38.7119" stroke="#273883" stroke-width="4.5" stroke-linecap="round"/>
<path d="M30.3409 40.35H51.7119" stroke="#273883" stroke-width="4.5" stroke-linecap="round"/>
<path d="M30.3409 50.85H51.7119" stroke="#273883" stroke-width="4.5" stroke-linecap="round"/>
</svg>
