<svg width="121" height="152" viewBox="0 0 121 152" fill="none" xmlns="http://www.w3.org/2000/svg">
<path d="M23.0974 148.097L5.09735 129.597L27.0974 107.097L21.5974 90.5974L29.5974 78.0974L45.5974 75.5974L59.5974 92.5974L71.5974 95.5974L78.5974 113.597L67.0974 129.597L49.5974 126.097L23.0974 148.097Z" fill="#FEFEFF"/>
<path d="M95.0704 3.15827L113.638 21.0882L92.3503 44.263L98.3619 60.5836L90.7554 73.3269L74.8411 76.3243L60.318 59.769L48.2303 57.1445L40.6727 39.3714L51.6684 23.0207L69.269 25.9736L95.0704 3.15827Z" fill="#FEFEFF"/>
<path d="M93.6784 4.59738L76.0093 21.7353C73.7483 23.9103 70.1075 23.8057 67.2397 22.4463C64.7778 21.2859 62.0681 20.699 59.3285 20.7327C56.5888 20.7664 53.8956 21.4198 51.4651 22.6405C49.0346 23.8611 46.9348 25.6149 45.3342 27.7609C43.7336 29.907 42.677 32.3854 42.2491 34.9971C41.8213 37.6088 42.0343 40.281 42.8709 42.7988C43.7076 45.3167 45.1445 47.61 47.0663 49.4946L67.0667 68.7961C69.0196 70.6508 71.396 72.0375 74.005 72.8449C76.614 73.6523 79.3829 73.8579 82.0892 73.445C84.7954 73.0321 87.3636 72.0124 89.5874 70.4678C91.8111 68.9231 93.6284 66.8966 94.8933 64.5511C96.1581 62.2055 96.8352 59.6064 96.8701 56.9625C96.905 54.3186 96.2969 51.7036 95.0944 49.3277C93.6858 46.5601 93.5774 43.0466 95.8312 40.8645L116.351 20.5103" stroke="#273883" stroke-width="9.19472" stroke-linecap="round" stroke-linejoin="round"/>
<path d="M48.6664 99.5961C51.4547 96.9052 54.951 95.3088 58.5773 94.8138M58.5773 94.8138C61.2901 94.4428 64.0552 94.6911 66.6505 95.5386C69.2458 96.3862 71.5989 97.8095 73.5207 99.6941C75.4425 101.579 76.8795 103.872 77.7161 106.39C78.5527 108.908 78.7657 111.58 78.3379 114.192C77.9101 116.803 76.8534 119.282 75.2529 121.428C73.6523 123.574 71.5524 125.328 69.1219 126.548C66.6915 127.769 63.9982 128.422 61.2586 128.456C58.5189 128.49 55.8093 127.903 53.3473 126.742C50.4795 125.383 46.8388 125.278 44.5777 127.453L23.7659 147.082M58.5773 94.8138C58.9617 92.1958 58.7045 89.5273 57.8262 87.0227C56.9479 84.5181 55.4731 82.2472 53.5203 80.3926C51.5675 78.5379 49.1911 77.1512 46.5821 76.3438C43.973 75.5364 41.2042 75.3309 38.4979 75.7437C35.7916 76.1566 33.2234 77.1763 30.9997 78.721C28.7759 80.2656 26.9586 82.2921 25.6938 84.6376C24.429 86.9832 23.7519 89.5823 23.7169 92.2262C23.682 94.8702 24.2902 97.4851 25.4926 99.861C26.9013 102.629 27.0096 106.142 24.7558 108.324L4.59735 128.981" stroke="#273883" stroke-width="9.19472" stroke-linecap="round" stroke-linejoin="round"/>
</svg>
