<svg width="94" height="105" viewBox="0 0 94 105" fill="none" xmlns="http://www.w3.org/2000/svg">
<path d="M57.3707 74.095V83.6047M66.9591 61.0093H76.5476M28.1967 35.652V26.1423M18.6082 45.1617H9.01971" stroke="#273883" stroke-width="8.28205" stroke-linecap="round" stroke-linejoin="round"/>
<path d="M69.3062 20.5511C71.1568 18.7157 73.4772 17.6269 75.8839 17.2893M75.8839 17.2893C77.6843 17.0363 79.5195 17.2056 81.2419 17.7837C82.9643 18.3618 84.526 19.3325 85.8015 20.6179C87.077 21.9033 88.0307 23.4675 88.5859 25.1849C89.1412 26.9022 89.2825 28.7247 88.9986 30.5061C88.7147 32.2874 88.0134 33.9778 86.9511 35.4416C85.8888 36.9053 84.4952 38.1015 82.8821 38.934C81.2691 39.7666 79.4816 40.2122 77.6634 40.2352C75.8451 40.2582 74.0468 39.8579 72.4129 39.0664C70.5096 38.1392 68.0933 38.0679 66.5927 39.5514L54.8661 51.2404M75.8839 17.2893C76.139 15.5037 75.9683 13.6836 75.3854 11.9753C74.8025 10.267 73.8237 8.71818 72.5277 7.45319C71.2316 6.18821 69.6545 5.24238 67.9229 4.69169C66.1914 4.14101 64.3537 4.00082 62.5576 4.28241C60.7615 4.564 59.0571 5.25951 57.5812 6.31305C56.1053 7.36659 54.8992 8.74879 54.0598 10.3486C53.2204 11.9484 52.771 13.7211 52.7478 15.5244C52.7246 17.3277 53.1283 19.1113 53.9263 20.7318C54.8612 22.6195 54.9331 25.0159 53.4373 26.5042L39.8189 40.3869" stroke="#273883" stroke-width="8.28205" stroke-linecap="round" stroke-linejoin="round"/>
<path d="M23.976 83.6283C22.1254 85.4637 19.805 86.5526 17.3983 86.8901M17.3983 86.8901C15.5979 87.1432 13.7627 86.9739 12.0403 86.3958C10.3178 85.8177 8.75614 84.8469 7.48067 83.5615C6.2052 82.2761 5.25153 80.7119 4.69628 78.9946C4.14104 77.2773 3.99969 75.4547 4.28361 73.6734C4.56754 71.8921 5.26881 70.2016 6.33108 68.7379C7.39335 67.2742 8.78701 66.078 10.4001 65.2454C12.0131 64.4129 13.8006 63.9672 15.6188 63.9442C17.4371 63.9212 19.2354 64.3215 20.8693 65.113C22.7726 66.0402 25.1889 66.1115 26.6895 64.628L40.5019 51.2405M17.3983 86.8901C17.1431 88.6758 17.3139 90.4958 17.8968 92.2041C18.4797 93.9124 19.4585 95.4613 20.7545 96.7262C22.0506 97.9912 23.6277 98.9371 25.3593 99.4878C27.0908 100.038 28.9285 100.179 30.7246 99.897C32.5207 99.6154 34.2251 98.9199 35.701 97.8664C37.1768 96.8128 38.3829 95.4307 39.2224 93.8309C40.0618 92.2311 40.5112 90.4583 40.5344 88.655C40.5576 86.8517 40.1539 85.0681 39.3559 83.4477C38.421 81.56 38.3491 79.1635 39.8449 77.6753L53.2236 63.5864" stroke="#273883" stroke-width="8.28205" stroke-linecap="round" stroke-linejoin="round"/>
</svg>
