<svg width="143" height="163" viewBox="0 0 143 163" fill="none" xmlns="http://www.w3.org/2000/svg">
<path d="M36.8952 51.2307H60.178L70.7612 71.3387H41.1284C35.1313 72.0442 23.1371 77.6885 23.1371 94.6215C23.1371 111.555 36.5424 119.315 43.245 121.079H108.86C108.86 131.239 98.9828 137.307 94.044 139.071H41.1284C28.4287 135.19 3.02917 120.868 3.02917 94.6215C3.02917 68.3754 25.6065 54.7584 36.8952 51.2307Z" fill="#00B6DE" stroke="#273883" stroke-width="6.05839" stroke-linecap="round"/>
<path d="M138.493 121.079H80.2859" stroke="#273883" stroke-width="7.21237" stroke-linecap="round"/>
<path d="M90.6294 87.2134L84.5192 76.6303L101.452 66.0471C102.158 67.1308 104.415 70.7645 107.802 76.6303C113.301 86.1551 96.1606 95.6799 90.6294 87.2134Z" fill="#00B6DE"/>
<path d="M42.1867 22.6563L75.1817 3.60669M84.5192 76.6303L90.6294 87.2134C96.1606 95.6799 113.301 86.1551 107.802 76.6303C104.415 70.7645 102.158 67.1308 101.452 66.0471L84.5192 76.6303Z" stroke="#273883" stroke-width="7.21237" stroke-linecap="round"/>
<path d="M58.7603 34.2977L49.595 18.423L68.6446 7.83984L77.1111 23.7145L58.7603 34.2977Z" fill="#00B6DE"/>
<path d="M84.5193 22.6562L53.8283 40.6475C60.1781 51.9362 73.9362 75.5718 76.0528 78.7468C83.461 74.5135 97.2191 67.5341 107.127 61.8138L84.5193 22.6562Z" fill="#00B6DE"/>
<path d="M58.7603 34.2977L49.595 18.423L68.6446 7.83984L77.1111 23.7145L58.7603 34.2977Z" stroke="#273883" stroke-width="7.21237" stroke-linecap="round"/>
<path d="M84.5193 22.6562L53.8283 40.6475C60.1781 51.9362 73.9362 75.5718 76.0528 78.7468C83.461 74.5135 97.2191 67.5341 107.127 61.8138L84.5193 22.6562Z" stroke="#273883" stroke-width="7.21237" stroke-linecap="round"/>
<path d="M89.8108 159.178H31.6036" stroke="#273883" stroke-width="7.21237" stroke-linecap="round"/>
<path d="M45.3617 127.109V158.12H81.3443V127.109C81.3443 120.907 73.2009 111.554 63.353 111.554C53.5051 111.554 45.3617 120.907 45.3617 127.109Z" fill="#FEFEFF" stroke="#273883" stroke-width="7.21237" stroke-linecap="round"/>
<circle cx="63.353" cy="129.545" r="5.29156" fill="#273883"/>
</svg>
