<svg width="104" height="149" viewBox="0 0 104 149" fill="none" xmlns="http://www.w3.org/2000/svg">
<path d="M53.0823 27.084L5.08232 41.084V57.584L18.0823 96.584L27.5823 142.584L74.5823 145.084L79.5823 116.084L88.5823 79.084L100.082 47.584V24.584L88.5823 4.08398H74.5823L53.0823 27.084Z" fill="#FEFEFF"/>
<path d="M98.4007 54.6962L90.3109 51.6855L77.773 55.3481L57.3739 52.4341L44.1591 55.7636" stroke="#00B6DE" stroke-width="8.17"/>
<path d="M4.99111 60.9029C23.7146 111.792 21.5087 120.858 25.7431 141.911C26.1728 144.048 28.066 145.568 30.2456 145.568C39.8032 145.568 60.1897 145.566 72.8831 145.565C75.2435 145.565 77.2285 143.798 77.5017 141.453C82.3467 99.8813 82.3812 94.9492 95.2298 59.3821M4.99111 60.9029C6.08953 61.1564 11.6562 57.5948 16.3079 55.7842C26.2255 51.1274 28.8076 54.1652 38.8825 56.9932M4.99111 60.9029L3.14251 51.4348C2.56171 45.1179 6.14209 39.2829 15.6985 37.5904C26.4179 35.0282 40.1821 31.7745 50.9245 27.7535C60.8727 24.0297 64.8399 12.5242 73.214 5.98901C78.9355 1.52396 86.8514 1.2013 93.8688 12.2819C97.3023 17.7035 98.771 24.1339 99.4824 30.5117C100.464 39.3105 99.8187 41.3445 99.5872 48.9804M4.99111 60.9029L11.0081 57.9605L17.025 55.0181C23.829 52.2755 25.1262 51.3253 38.4204 52.9378C45.9315 54.1945 47.0407 50.726 52.1158 48.8986M95.2298 59.3821C89.1463 57.9626 88.1545 58.7771 85.5976 59.6356C81.9674 61.4213 76.5407 62.3981 68.6145 59.6356C66.6441 58.9489 62.381 57.4065 53.2458 58.4441C51.1654 58.6804 49.0559 58.6863 46.9674 58.5379C45.2665 58.4169 43.2511 58.2195 38.8825 56.9932M95.2298 59.3821L99.5872 48.9804M38.8825 56.9932L52.1158 48.8986M52.1158 48.8986C61.6896 45.4514 67.2118 48.4836 71.5694 49.3655C77.8979 50.9668 80.6453 50.9925 83.7085 49.5212C89.6039 46.6896 94.8468 47.6177 98.5819 48.7071L99.5872 48.9804" stroke="#273883" stroke-width="6.16519"/>
<path d="M27.001 19.2817V37.8163M27.001 37.8163L36.9042 28.7433M27.001 37.8163L16.6572 28.7337" stroke="#F87817" stroke-width="6.16519" stroke-linecap="round"/>
<path d="M26.5603 84.3613V65.8268M26.5603 65.8268L16.6571 74.8997M26.5603 65.8268L36.9041 74.9094" stroke="#F87817" stroke-width="6.16519" stroke-linecap="round"/>
</svg>
