<svg width="178" height="145" viewBox="0 0 178 145" fill="none" xmlns="http://www.w3.org/2000/svg">
<path d="M49.7749 108.908V9.70483H127.578V108.908H49.7749Z" stroke="#00B6DE" stroke-width="15"/>
<path d="M43.518 119.336H131.93" stroke="#00B6DE" stroke-width="15"/>
<path d="M53.8963 102.63V17H121.896V102.63C121.896 108.734 76.5629 105.173 53.8963 102.63Z" fill="#FEFEFF"/>
<path d="M129.42 0.0126953C134.406 0.265406 138.371 4.38842 138.371 9.4375V122.229L138.359 122.715C138.115 127.54 134.245 131.41 129.42 131.654L128.934 131.666H48.7869L48.3006 131.654C43.4752 131.41 39.6066 127.54 39.3621 122.715L39.3494 122.229V9.4375C39.3494 4.38853 43.3144 0.265568 48.3006 0.0126953L48.7869 0H128.934L129.42 0.0126953ZM48.7869 5.39258C46.5532 5.39258 44.742 7.20382 44.742 9.4375V122.229C44.7421 124.463 46.5533 126.273 48.7869 126.273H128.934C131.168 126.273 132.978 124.463 132.978 122.229V9.4375C132.978 7.20389 131.168 5.39267 128.934 5.39258H48.7869ZM121.595 13.6074C123.969 13.7276 125.857 15.6913 125.857 18.0957V101.601C125.857 104.005 123.969 105.969 121.595 106.089L121.364 106.095H56.3572L56.1258 106.089C53.7513 105.969 51.8631 104.005 51.8631 101.601V18.0957C51.8631 15.6914 53.7513 13.7277 56.1258 13.6074L56.3572 13.6016H121.364L121.595 13.6074ZM57.7049 100.253H120.015V19.4434H57.7049V100.253Z" fill="#273883"/>
<path d="M95.1538 33.7329C97.3873 33.7331 99.1977 35.5443 99.1977 37.7778V48.9673H110.387C112.621 48.9673 114.432 50.7776 114.432 53.0112V66.6851C114.432 68.9187 112.621 70.73 110.387 70.73H99.1977V81.3755C99.1977 83.609 97.3873 85.4202 95.1538 85.4204H81.479C79.2454 85.4203 77.435 83.6091 77.435 81.3755V70.73H66.7886C64.5551 70.7297 62.7446 68.9186 62.7446 66.6851V53.0112C62.7447 50.7778 64.5551 48.9675 66.7886 48.9673H77.435V37.7778C77.435 35.5442 79.2454 33.733 81.479 33.7329H95.1538Z" fill="#273883"/>
<path d="M162.953 141.732H135.046C134.609 141.732 134.238 141.432 134.163 141.002C130.808 121.777 124.175 83.7097 123.174 77.7527C123.147 77.592 123.17 77.4464 123.233 77.2962C126.035 70.5964 132.488 72.4486 135.651 74.3682C135.829 74.4762 135.957 74.6472 136.021 74.8456L144.803 102.412C145.074 103.263 146.285 103.241 146.525 102.381L148.885 93.9259C148.946 93.7047 148.921 93.4682 148.814 93.265L136.027 69.0228C135.959 68.8935 135.923 68.7496 135.923 68.6035V41.8701C135.923 41.0064 137.022 40.6399 137.541 41.3309L174.847 91.0724C175.005 91.2835 175.063 91.5534 175.004 91.8107L163.83 141.032C163.737 141.442 163.373 141.732 162.953 141.732Z" fill="#FEFEFF" stroke="#273883" stroke-width="5.93184"/>
<path d="M15.0394 141.732H42.9464C43.3831 141.732 43.7543 141.432 43.8293 141.002C47.1844 121.777 53.8179 83.7097 54.8184 77.7527C54.8454 77.592 54.8229 77.4464 54.76 77.2962C51.9576 70.5964 45.5043 72.4486 42.3419 74.3682C42.1639 74.4762 42.0351 74.6472 41.9719 74.8456L33.1896 102.412C32.9186 103.263 31.7075 103.241 31.4675 102.381L29.108 93.9259C29.0462 93.7047 29.0715 93.4682 29.1787 93.265L41.9658 69.0228C42.034 68.8935 42.0697 68.7496 42.0697 68.6035V41.8701C42.0697 41.0064 40.9701 40.6399 40.4519 41.3309L3.1457 91.0724C2.98741 91.2835 2.92984 91.5534 2.98825 91.8107L14.1629 141.032C14.2558 141.442 14.6197 141.732 15.0394 141.732Z" fill="#FEFEFF" stroke="#273883" stroke-width="5.93184"/>
<circle cx="89.6765" cy="116.704" r="5.16872" fill="#273883"/>
<path d="M90.29 43.355C90.9849 43.355 91.5488 43.9179 91.5488 44.6128V56.2954H102.716C103.411 56.2954 103.975 56.8593 103.975 57.5542V61.5981C103.975 62.2931 103.411 62.8569 102.716 62.8569H91.5488V74.5396C91.5487 75.2344 90.9849 75.7974 90.29 75.7974H86.418C85.7231 75.7973 85.1602 75.2344 85.1601 74.5396V62.8569H73.9922C73.2973 62.8569 72.7344 62.293 72.7344 61.5981V57.5542C72.7344 56.8593 73.2973 56.2954 73.9922 56.2954H85.1601V44.6128C85.1602 43.9179 85.7231 43.355 86.418 43.355H90.29Z" fill="#C20000" stroke="#C20000" stroke-width="2.24691"/>
</svg>
